<svg width="18" height="15" viewBox="0 0 18 15" fill="none" xmlns="http://www.w3.org/2000/svg">
<path d="M18 7.49989C18 7.07953 17.6922 6.73213 17.2928 6.67715L17.1818 6.66957L2.799 6.67L7.99526 1.41871C8.31546 1.09515 8.31658 0.569418 7.99775 0.24446C7.7079 -0.0509558 7.25342 -0.0787477 6.9326 0.161737L6.84067 0.241932L0.240667 6.91106L0.224491 6.92855C0.207731 6.94648 0.191751 6.96516 0.176609 6.98455L0.240667 6.91106C0.208868 6.94319 0.180218 6.97731 0.154715 7.01303C0.139297 7.03547 0.124338 7.05877 0.110537 7.08284C0.0793571 7.1364 0.0551949 7.19245 0.0373726 7.25008C0.0313663 7.27039 0.0257854 7.29113 0.0209904 7.31219C0.0170918 7.32826 0.0138874 7.34459 0.0111675 7.36099C0.00844955 7.37876 0.00607872 7.39654 0.00427246 7.4145C0.00222397 7.43251 0.000967026 7.45093 0.000312805 7.46936C0.000177383 7.47958 -1.90735e-06 7.48971 -1.90735e-06 7.49989L0.000240326 7.52746C0.000917435 7.54791 0.00233459 7.56834 0.00449181 7.5887L-1.90735e-06 7.49989C-1.90735e-06 7.5473 0.00391388 7.59379 0.0114346 7.63903C0.0147953 7.65964 0.0190544 7.68035 0.0240955 7.70089C0.0281372 7.71722 0.0325813 7.73325 0.0374794 7.74907C0.0432625 7.76787 0.0498714 7.78681 0.0571785 7.80554C0.064764 7.82488 0.0729694 7.84377 0.0818329 7.86229C0.0885487 7.87645 0.0960636 7.89106 0.104036 7.90548C0.119078 7.93254 0.134998 7.95792 0.152187 7.98232C0.154892 7.98614 0.157925 7.99035 0.160999 7.99454C0.188286 8.0316 0.21657 8.0643 0.247183 8.09457L6.84062 14.758C7.1608 15.0816 7.67884 15.0805 7.9977 14.7556C8.28757 14.4602 8.31304 13.9989 8.07472 13.6743L7.99531 13.5813L2.8 8.331L17.1818 8.33021C17.6337 8.33021 18 7.95846 18 7.49989Z" fill="#282F2C"/>
</svg>
