<svg width="50" height="52" viewBox="0 0 50 52" fill="none" xmlns="http://www.w3.org/2000/svg">
<path opacity="0.4" d="M46.9833 19C46.9833 16.3957 47.0301 15.7418 46.967 13.218C46.922 11.4306 46.5435 8 41.8374 8C40.8209 10.7992 39.5862 11.9252 37.5874 11.9046C35.5849 11.884 34.3142 10.7055 33.4364 8.04871H16.4668C15.9045 10.4769 14.4157 11.8671 12.3862 11.9046C10.3225 11.9421 8.83548 10.5893 8.15057 8.01124C2.92541 8.01124 3.10565 11.3182 3.05158 12.8002C2.95425 15.4739 3.02454 16.2814 3.02454 19H46.9833Z" fill="#4E70F2"/>
<path opacity="0.4" d="M12.4844 9.99998C13.8076 10.0051 14.8529 9.13301 14.9777 7.88205C15.023 7.43149 14.9852 6.97241 14.9852 6.51844C14.9852 6.51844 14.9815 6.51844 14.9796 6.51844C14.9796 6.03547 15.0268 5.54737 14.9701 5.06951C14.8283 3.8322 13.7376 2.96523 12.4239 3.00107C11.1441 3.0352 10.1271 3.90559 10.0459 5.12242C9.98536 6.02864 9.98536 6.9434 10.0421 7.85133C10.1215 9.11253 11.163 9.99486 12.4844 9.99998V9.99998Z" fill="#4E70F2"/>
<path opacity="0.4" d="M37.4949 9.99999C38.8274 10.0034 39.901 9.1039 39.9848 7.89034C40.0153 7.43803 39.9905 6.98401 39.9905 6.52999C39.9886 6.52999 39.9867 6.52999 39.9829 6.52999C39.9829 6.01964 40.0248 5.50759 39.9753 5.00066C39.8611 3.84684 38.7551 2.98318 37.4644 3.00025C36.1719 3.01732 35.0964 3.90317 35.0355 5.07064C34.986 6.00428 34.9917 6.94134 35.0317 7.87498C35.083 9.09195 36.1624 9.99658 37.4949 9.99999V9.99999Z" fill="#4E70F2"/>
<path d="M46.9992 24.8077V20H3.00118C3.00118 20.3535 3.00118 20.6551 3.00118 20.9549C3.00118 29.0011 2.99757 34.6416 3.00298 42.6878C3.00298 45.2563 3.8229 49 8.2991 49C20.3672 49 29.3719 49 41.44 49C45.9919 49 46.9992 45.2341 46.9992 42.5638C47.001 35.8426 46.9992 31.5289 46.9992 24.8077V24.8077ZM36.3925 28.8086L22.3602 42.8451C22.0233 43.1819 21.5728 43.3706 21.1024 43.3706C21.0916 43.3706 21.0808 43.3706 21.07 43.3706C20.5889 43.3614 20.1311 43.156 19.7996 42.7988L13.5628 36.0998C12.8744 35.3614 12.9015 34.19 13.6205 33.4831C14.3395 32.7762 15.4801 32.8021 16.1685 33.5423L21.1493 38.8904L33.8787 26.1568C34.5923 25.4443 35.733 25.4591 36.4268 26.1919C37.1205 26.9248 37.1061 28.0962 36.3925 28.8086Z" fill="#4E70F2"/>
</svg>
