<svg width="38" height="42" viewBox="0 0 38 42" fill="none" xmlns="http://www.w3.org/2000/svg">
<path fill-rule="evenodd" clip-rule="evenodd" d="M0.25 31.1458V15.2854H37.75V31.2729C37.75 37.8125 33.6336 41.8333 27.0475 41.8333H10.9319C4.40752 41.8333 0.25 37.7291 0.25 31.1458ZM10.5821 26.0208C9.63529 26.0646 8.85318 25.3125 8.81202 24.3562C8.81202 23.3979 9.55296 22.6062 10.4997 22.5625C11.4259 22.5625 12.1874 23.2937 12.208 24.2292C12.2492 25.1896 11.5082 25.9812 10.5821 26.0208ZM19.0412 26.0208C18.0944 26.0646 17.3123 25.3125 17.2711 24.3562C17.2711 23.3979 18.0121 22.6062 18.9588 22.5625C19.885 22.5625 20.6465 23.2937 20.6671 24.2292C20.7083 25.1896 19.9673 25.9812 19.0412 26.0208ZM27.4385 33.6875C26.4918 33.6667 25.7302 32.875 25.7302 31.9167C25.7097 30.9583 26.4712 30.1687 27.4179 30.1479H27.4385C28.4059 30.1479 29.188 30.9396 29.188 31.9167C29.188 32.8958 28.4059 33.6875 27.4385 33.6875ZM17.2711 31.9167C17.3123 32.875 18.0944 33.6271 19.0412 33.5833C19.9673 33.5437 20.7083 32.7521 20.6671 31.7937C20.6465 30.8562 19.885 30.125 18.9588 30.125C18.0121 30.1687 17.2711 30.9583 17.2711 31.9167ZM8.79144 31.9167C8.8326 32.875 9.61471 33.6271 10.5615 33.5833C11.4877 33.5437 12.2286 32.7521 12.1874 31.7937C12.1669 30.8562 11.4053 30.125 10.4791 30.125C9.53238 30.1687 8.79144 30.9583 8.79144 31.9167ZM25.7508 24.3354C25.7508 23.3771 26.4918 22.6062 27.4385 22.5854C28.3647 22.5854 29.1057 23.3333 29.1468 24.2521C29.1674 25.2104 28.4265 26.0021 27.5003 26.0208C26.5535 26.0417 25.7714 25.3125 25.7508 24.3562V24.3354Z" fill="#4E70F2"/>
<path opacity="0.4" d="M0.257019 15.2852C0.283775 14.0623 0.386684 11.6352 0.580153 10.854C1.56808 6.46021 4.92291 3.66855 9.71846 3.27063H28.2832C33.0376 3.68938 36.4336 6.4998 37.4215 10.854C37.6129 11.6144 37.7159 14.0602 37.7426 15.2852H0.257019Z" fill="#4E70F2"/>
<path d="M11.3018 9.72913C12.2074 9.72913 12.8866 9.04371 12.8866 8.12496V1.77288C12.8866 0.854126 12.2074 0.166626 11.3018 0.166626C10.3962 0.166626 9.71698 0.854126 9.71698 1.77288V8.12496C9.71698 9.04371 10.3962 9.72913 11.3018 9.72913Z" fill="#4E70F2"/>
<path d="M26.6978 9.72913C27.5828 9.72913 28.2826 9.04371 28.2826 8.12496V1.77288C28.2826 0.854126 27.5828 0.166626 26.6978 0.166626C25.7922 0.166626 25.113 0.854126 25.113 1.77288V8.12496C25.113 9.04371 25.7922 9.72913 26.6978 9.72913Z" fill="#4E70F2"/>
</svg>
