<svg width="50" height="50" viewBox="0 0 50 50" fill="none" xmlns="http://www.w3.org/2000/svg">
<path opacity="0.4" d="M33.4906 4.16663H40.5447C43.4661 4.16663 45.8333 6.55382 45.8333 9.49988V16.6136C45.8333 19.5596 43.4661 21.9468 40.5447 21.9468H33.4906C30.5693 21.9468 28.2021 19.5596 28.2021 16.6136V9.49988C28.2021 6.55382 30.5693 4.16663 33.4906 4.16663Z" fill="#4E70F2"/>
<path fill-rule="evenodd" clip-rule="evenodd" d="M9.45525 4.16663H16.5093C19.4307 4.16663 21.7979 6.55382 21.7979 9.49988V16.6136C21.7979 19.5596 19.4307 21.9468 16.5093 21.9468H9.45525C6.53386 21.9468 4.16666 19.5596 4.16666 16.6136V9.49988C4.16666 6.55382 6.53386 4.16663 9.45525 4.16663ZM9.45525 28.0531H16.5093C19.4307 28.0531 21.7979 30.4403 21.7979 33.3864V40.5C21.7979 43.4441 19.4307 45.8333 16.5093 45.8333H9.45525C6.53386 45.8333 4.16666 43.4441 4.16666 40.5V33.3864C4.16666 30.4403 6.53386 28.0531 9.45525 28.0531ZM40.5447 28.0531H33.4906C30.5692 28.0531 28.202 30.4403 28.202 33.3864V40.5C28.202 43.4441 30.5692 45.8333 33.4906 45.8333H40.5447C43.4661 45.8333 45.8333 43.4441 45.8333 40.5V33.3864C45.8333 30.4403 43.4661 28.0531 40.5447 28.0531Z" fill="#4E70F2"/>
</svg>
