<svg width="47" height="46" viewBox="0 0 47 46" fill="none" xmlns="http://www.w3.org/2000/svg">
<g clip-path="url(#clip0_218_5510)">
<path d="M3.02185 14.1157C3.02185 16.2401 4.58364 18.0454 6.59165 18.7092V39.587H3.02185V42.3826H43.9123V39.587H40.3425V18.7058C42.434 18.0931 43.8634 16.3146 43.9123 14.1157V12.8732H3.02185V14.1157ZM13.2915 14.0141C13.2915 15.0201 14.3876 18.9018 18.4396 18.9018C21.959 18.9018 23.5026 15.8554 23.5026 14.0141C23.5026 15.7307 24.705 18.8983 28.6081 18.8983C32.1345 18.8983 33.6971 15.6369 33.6971 14.0141C33.6971 16.2545 35.2753 18.1169 37.4217 18.6974V39.587H9.51239V18.712C11.687 18.1486 13.2915 16.2738 13.2915 14.0141ZM38.8548 6.81603H38.8821V3.70978H8.21428V6.81603L3.02185 11.786H43.9123L38.8548 6.81603Z" fill="#373737"/>
<path d="M17.9215 31.1296C17.9215 28.3394 20.1834 26.0775 22.9736 26.0775C25.7638 26.0775 28.0257 28.3394 28.0257 31.1296V39.5497H17.9215V31.1296Z" fill="#373737"/>
</g>
<defs>
<clipPath id="clip0_218_5510">
<rect width="41.5395" height="39.2941" fill="white" transform="translate(2.69739 3.39914)"/>
</clipPath>
</defs>
</svg>
