<svg width="75" height="81" viewBox="0 0 75 81" fill="none" xmlns="http://www.w3.org/2000/svg">
<path fill-rule="evenodd" clip-rule="evenodd" d="M42.9111 0C48.6633 2.62795 50.5807 6.32231 50.0438 10.2071C49.2001 13.8634 45.5571 17.1007 42.7194 19.0812C36.7755 23.2326 28.1856 26.8508 20.8612 24.5656C15.1474 22.7756 16.4128 16.3009 16.2978 16.9865C15.7609 19.7287 16.3745 22.7756 18.637 24.6418C20.6694 26.3176 24.1591 26.7746 26.7284 26.7746C29.0292 26.7746 31.3685 26.3557 33.631 25.7844C32.2121 26.508 30.7549 27.1936 29.2593 27.7648C23.2004 30.05 18.1385 29.0979 12.9615 30.3928C3.4513 32.7541 0 41.6663 0 41.6663C0 41.6663 4.2566 32.678 21.5898 33.135C21.7048 33.135 22.0883 33.1731 22.2417 33.1731C15.4541 37.6673 11.6961 44.1038 18.1768 58.3481C16.8347 37.7053 36.5837 36.1057 47.2828 30.2785C63.5806 21.4425 64.731 4.11331 42.9111 0Z" fill="#5679FF"/>
<path fill-rule="evenodd" clip-rule="evenodd" d="M65.4215 44.9798C68.3742 46.7318 70.5984 47.1888 74.8934 46.9984L73.3978 46.1986C71.3654 45.3226 71.0202 45.0941 69.1795 43.7991C63.1206 39.305 63.7342 29.8215 63.274 23.0421C62.9672 19.1954 62.507 15.6153 61.2416 12.4542C60.8964 11.6163 59.746 9.94049 59.746 9.94049C61.5867 16.1485 61.4333 19.5763 57.7903 27.0412C53.8021 35.2297 61.2416 39.7239 55.7195 40.4856C51.9231 41.0188 52.9584 41.6663 53.1502 43.6468C53.2652 44.9798 52.4216 45.056 50.926 45.2083C51.1561 47.722 51.3095 47.3792 49.1237 47.722C46.8228 48.0648 48.9703 53.3588 44.2919 52.3304C41.3774 51.683 39.6518 48.8646 35.5869 48.9408C25.6165 58.7289 41.7609 65.1274 47.7431 79.4859C48.7402 73.4302 41.3774 64.8989 50.5809 59.0717C47.8965 66.3462 47.5131 75.1822 54.454 80.4381C53.9171 78.5338 52.8817 76.6675 52.6517 74.3062C52.3065 71.0308 52.575 67.2602 53.5337 64.2133C57.867 49.931 52.1148 73.0493 67.3005 75.6011C64.1176 72.2114 62.3153 70.3071 62.6604 64.3276C63.2356 54.4252 63.0439 53.5873 61.3182 49.3216C61.7401 50.35 65.6132 52.559 68.0675 57.0531C70.9052 62.2709 69.5247 64.1372 68.9878 69.3169C76.9641 53.3207 65.1147 51.3783 65.4215 44.9798Z" fill="#5679FF"/>
<path fill-rule="evenodd" clip-rule="evenodd" d="M29.1828 5.56059C29.2978 5.44633 31.1002 7.42681 32.7491 10.588C32.7491 10.5499 32.7491 10.5118 32.7491 10.5118C33.8612 3.3135 24.9645 0.761722 22.3952 0.342773C26.345 3.50393 26.6902 13.7872 32.3656 12.0352C31.1002 9.44538 29.7963 6.627 29.1828 5.56059Z" fill="#5679FF"/>
<path fill-rule="evenodd" clip-rule="evenodd" d="M37.7341 8.30283C36.7754 9.29307 36.0468 10.0167 34.9347 12.6447C34.9347 12.6066 34.9347 12.6066 34.9347 12.5685C33.7843 6.58895 42.1057 4.34186 43.6013 4.18951C40.9553 6.93172 38.5394 16.5675 35.3565 13.8634C35.8551 11.3878 37.0822 9.36924 37.7341 8.30283Z" fill="#5679FF"/>
<path fill-rule="evenodd" clip-rule="evenodd" d="M26.8435 15.7296C28.3391 15.0821 29.4895 14.587 32.9408 14.4727C32.9025 14.4727 32.9025 14.4347 32.8641 14.4347C26.6518 10.5879 20.5928 18.8527 19.7875 20.4523C24.0058 18.7003 36.6605 19.3859 34.1296 15.463C31.1001 14.9679 28.3007 15.463 26.8435 15.7296Z" fill="#5679FF"/>
<path fill-rule="evenodd" clip-rule="evenodd" d="M2.91422 27.1555C2.95256 27.0412 5.10004 26.8508 6.02038 26.1271C7.20916 25.4416 5.82864 24.1847 3.52778 26.3937C3.29769 26.6223 3.10595 26.8889 2.91422 27.1555Z" fill="#5679FF"/>
<path fill-rule="evenodd" clip-rule="evenodd" d="M4.60178 21.2902C6.90264 21.0236 7.93803 19.8049 9.97046 19.6144C12.348 19.3859 12.8849 23.3088 7.40116 22.2043C6.17403 21.9758 5.13864 21.4807 4.60178 21.2902Z" fill="#5679FF"/>
</svg>
