<svg width="113" height="114" viewBox="0 0 113 114" fill="none" xmlns="http://www.w3.org/2000/svg">
<path d="M6.00022 112.932L17.2689 23.0953H95.822L106.778 112.932H6.00022Z" stroke="#909090" stroke-width="1.59285"/>
<path d="M79.6406 23.5723H94.932L107.038 111.498H104.17L79.6406 23.5723Z" fill="#909090"/>
<path d="M32.1638 22.4592C33.5104 10.2744 43.8416 0.796424 56.3858 0.796424C68.9299 0.796424 79.2611 10.2744 80.6077 22.4592H32.1638Z" stroke="#909090" stroke-width="1.59285"/>
<path d="M39.1601 23.2871C40.2256 14.5511 47.5544 7.80619 56.4148 7.80619C65.2752 7.80619 72.6039 14.5511 73.6695 23.2871H39.1601Z" stroke="#909090" stroke-width="1.59285"/>
<circle cx="40.4587" cy="52.5641" r="5.41569" fill="#909090"/>
<circle cx="3.82284" cy="57.9771" r="3.50427" stroke="#909090" stroke-width="0.637139"/>
<circle cx="109.906" cy="83.1464" r="2.54856" stroke="#909090" stroke-width="0.637139"/>
<circle cx="72.3141" cy="52.5641" r="5.41569" fill="#909090"/>
<path fill-rule="evenodd" clip-rule="evenodd" d="M80.4691 93.9985C80.5231 94.2634 80.9152 94.2467 80.9152 93.9763C80.9152 81.1326 69.9328 70.7207 56.3853 70.7207C42.8379 70.7207 31.8555 81.1326 31.8555 93.9763C31.8555 94.2467 32.2476 94.2634 32.3016 93.9985C34.4866 83.2774 44.4386 75.1806 56.3853 75.1806C68.3321 75.1806 78.2841 83.2774 80.4691 93.9985Z" fill="#909090"/>
<path d="M111.183 34.7227L106.723 39.1826M106.723 34.7227L111.183 39.1826" stroke="#909090" stroke-width="0.637139"/>
</svg>
