<svg width="26" height="28" viewBox="0 0 26 28" fill="none" xmlns="http://www.w3.org/2000/svg">
<path d="M17.4263 11.1213C17.4263 9.37868 16.734 7.70745 15.5018 6.47524C14.2696 5.24303 12.5984 4.55078 10.8558 4.55078C9.11315 4.55078 7.44192 5.24303 6.20971 6.47524C4.9775 7.70745 4.28525 9.37868 4.28525 11.1213C4.28525 18.7869 1 20.9771 1 20.9771H20.7115C20.7115 20.9771 17.4263 18.7869 17.4263 11.1213Z" stroke="white" stroke-width="2" stroke-linecap="round" stroke-linejoin="round"/>
<path d="M12.7499 25.3574C12.5574 25.6893 12.2811 25.9648 11.9486 26.1563C11.6161 26.3478 11.2391 26.4486 10.8554 26.4486C10.4717 26.4486 10.0948 26.3478 9.76229 26.1563C9.42981 25.9648 9.15346 25.6893 8.96094 25.3574" stroke="white" stroke-width="2" stroke-linecap="round" stroke-linejoin="round"/>
<circle cx="18.4414" cy="7" r="5.5" fill="#FF764D" stroke="#4E70F2" stroke-width="3"/>
</svg>
