<svg width="50" height="44" viewBox="0 0 50 44" fill="none" xmlns="http://www.w3.org/2000/svg">
<path opacity="0.4" d="M47.9923 6.51706C47.985 3.76015 46.194 2.01096 43.3795 2.00739C36.8196 1.99667 30.258 1.99845 23.6963 2.00739C20.8872 2.01096 19.0962 3.64402 19.0363 6.37948C18.9692 9.4437 19.0109 12.5115 19.0363 15.5775C19.0381 15.8187 19.2105 16.1707 19.4119 16.2797C20.3556 16.7943 21.3391 17.2409 22.3462 17.7323C22.5113 17.4268 22.6547 17.1677 22.7908 16.9068C23.2626 16.0099 23.6836 15.0826 24.2116 14.2178C25.3367 12.3775 27.5905 11.7468 29.4958 12.6812C31.3957 13.6139 32.2849 15.8116 31.4357 17.7609C30.757 19.3153 30.013 20.8555 29.1383 22.3081C28.4052 23.5284 28.3907 24.8255 28.2437 26.1781C28.8534 26.2085 29.416 26.2371 30.0638 26.2692C29.9422 26.6301 29.8569 26.9089 29.7553 27.1822C28.2401 31.2881 26.7176 35.3904 25.2097 39.4981C25.0681 39.8858 24.8359 40.345 24.9357 40.688C25.0699 41.1418 25.4165 41.7243 25.8085 41.8583C26.2023 41.9941 26.8084 41.719 27.2402 41.4813C27.4761 41.3509 27.5687 40.9328 27.6812 40.6291C29.3706 36.0801 31.0437 31.5257 32.7513 26.9821C32.8638 26.6855 33.1722 26.3407 33.4626 26.2531C34.0378 26.078 34.1032 26.6194 34.2465 27.0018C35.7454 31.0183 37.2443 35.0348 38.7468 39.0496C39.0172 39.775 39.2603 40.5129 39.5924 41.2097C39.9136 41.8815 40.4943 42.1585 41.2437 41.9101C41.9496 41.6743 42.2835 41.0025 42.0857 40.2628C42.0312 40.0627 41.9514 39.8679 41.8788 39.6732C40.3328 35.5155 38.7849 31.3578 37.2388 27.2001C37.1318 26.9124 37.0374 26.6212 36.8977 26.2192C37.3749 26.2192 37.7034 26.2192 38.0318 26.2192C39.8464 26.2192 41.6611 26.2513 43.4739 26.2085C46.2757 26.1424 47.9832 24.4307 47.9905 21.6988C48.0032 16.6388 48.0032 11.577 47.9905 6.51706H47.9923ZM40.7338 20.4481C39.7376 20.4767 38.7377 20.4552 37.7415 20.4552C36.7743 20.4552 35.8053 20.4731 34.8399 20.4517C33.9253 20.4302 33.3337 19.8871 33.3392 19.1259C33.3446 18.4023 33.9126 17.8163 34.7655 17.802C36.7598 17.768 38.7558 17.768 40.7519 17.802C41.603 17.8163 42.1655 18.413 42.1619 19.1402C42.1583 19.871 41.5867 20.4231 40.7356 20.4481H40.7338ZM33.3374 14.1303C33.3247 13.4066 33.8945 12.7902 34.7328 12.7759C36.7289 12.7402 38.725 12.7402 40.7193 12.7724C41.603 12.7866 42.1982 13.4245 42.1565 14.1767C42.1147 14.9075 41.5413 15.4095 40.6721 15.4274C39.674 15.4471 38.676 15.4328 37.678 15.4328C36.7108 15.4328 35.7418 15.4506 34.7746 15.4256C33.9199 15.4042 33.3483 14.8682 33.3356 14.132L33.3374 14.1303ZM40.3618 10.4139C38.0645 10.4175 35.769 10.4139 33.4717 10.4139C31.2052 10.4139 28.9387 10.4157 26.6723 10.4139C25.5 10.4121 24.9066 9.97078 24.8921 9.1078C24.8794 8.24124 25.4964 7.74275 26.6269 7.74096C31.2197 7.7356 35.8143 7.7356 40.4072 7.74096C41.5195 7.74096 42.1746 8.26447 42.1601 9.1078C42.1456 9.95292 41.5195 10.4121 40.3618 10.4139Z" fill="#4E70F2"/>
<path d="M25.7028 24.14C25.6637 23.7912 25.7384 23.3839 25.8916 23.0669C26.8317 21.1296 27.82 19.2153 28.7744 17.285C29.2053 16.4138 29.0041 15.6594 28.2972 15.2981C27.5814 14.9316 26.8531 15.2131 26.4097 16.0756C25.4927 17.857 24.5988 19.6491 23.6711 21.4873C22.7238 21.0216 21.8246 20.5788 20.9236 20.1379C19.0077 19.2029 17.1167 18.2165 15.1669 17.3577C14.1804 16.922 13.0907 16.7184 12.0472 16.4102C15.5533 15.2185 16.6573 12.2965 16.2584 9.78016C15.8382 7.13096 13.4397 5.07854 10.7331 5.00239C7.97136 4.92447 5.52478 6.76085 4.8891 9.38526C4.12521 12.5427 5.53724 14.7704 9.53475 16.6157C5.45534 17.2868 2.64907 19.9767 2.15584 23.9169C1.91189 25.8631 2.00092 27.8677 2.10954 29.8369C2.18433 31.2057 2.99273 32.2895 4.23739 32.9075C4.79472 33.1838 4.91403 33.5008 4.9069 34.0568C4.87841 36.0933 4.89266 38.1298 4.89622 40.1663C4.898 41.5706 5.33425 41.9956 6.77122 41.9973C9.29436 42.0009 11.8157 42.0009 14.3389 41.9973C15.7135 41.9956 16.1409 41.5706 16.1426 40.1982C16.1462 35.7409 16.1426 31.2854 16.1426 26.8282V25.7728C16.5451 25.9552 16.8086 26.0685 17.0668 26.1942C18.2919 26.7892 19.4831 27.4657 20.7456 27.9686C23.3364 28.9993 26.0109 26.8884 25.701 24.1418L25.7028 24.14Z" fill="#4E70F2"/>
</svg>
