<svg width="42" height="42" viewBox="0 0 42 42" fill="none" xmlns="http://www.w3.org/2000/svg">
<path d="M14.8381 32.8541L8.70153 36.2014C8.34143 36.3977 8.0178 36.6391 7.71667 36.9022C11.2952 39.9181 15.9137 41.738 20.9598 41.738C25.9687 41.738 30.5577 39.9452 34.1254 36.9697C33.7963 36.6919 33.4393 36.442 33.0435 36.2449L26.4724 32.9597C25.6234 32.5352 25.0871 31.6675 25.0871 30.7183V28.1402C25.2718 27.9298 25.4829 27.6598 25.7087 27.3408C26.6043 26.0758 27.2819 24.6842 27.7514 23.2244C28.5942 22.9644 29.2151 22.186 29.2151 21.2609V18.5089C29.2151 17.9036 28.9458 17.3626 28.5275 16.9839V13.0057C28.5275 13.0057 29.3447 6.81482 20.9606 6.81482C12.5765 6.81482 13.3938 13.0057 13.3938 13.0057V16.9839C12.9747 17.3626 12.7061 17.9036 12.7061 18.5089V21.2609C12.7061 21.9858 13.0872 22.6237 13.6576 22.9924C14.3452 25.9858 16.1458 28.1402 16.1458 28.1402V30.6547C16.1442 31.5713 15.6429 32.4156 14.8381 32.8541Z" fill="#ECF0F1"/>
<path d="M21.3104 0.609203C9.95394 0.415181 0.589665 9.46437 0.395643 20.8209C0.285438 27.2601 3.15541 33.0474 7.72502 36.896C8.02381 36.6352 8.34434 36.3962 8.70056 36.2022L14.8371 32.8549C15.6419 32.4156 16.1432 31.572 16.1432 30.6547V28.1402C16.1432 28.1402 14.3419 25.9857 13.6551 22.9924C13.0855 22.6237 12.7036 21.9866 12.7036 21.2609V18.5089C12.7036 17.9036 12.9729 17.3626 13.3912 16.9839V13.0057C13.3912 13.0057 12.574 6.8148 20.9581 6.8148C29.3422 6.8148 28.525 13.0057 28.525 13.0057V16.9839C28.944 17.3626 29.2126 17.9036 29.2126 18.5089V21.2609C29.2126 22.186 28.5917 22.9644 27.7489 23.2244C27.2793 24.6842 26.6018 26.0758 25.7062 27.3408C25.4804 27.6598 25.2693 27.9298 25.0846 28.1402V30.7183C25.0846 31.6675 25.6208 32.5359 26.4699 32.9597L33.041 36.2448C33.4353 36.442 33.7915 36.6911 34.1198 36.9682C38.5512 33.2724 41.4142 27.7467 41.5206 21.524C41.7161 10.1675 32.6677 0.803225 21.3104 0.609203Z" fill="#373737"/>
</svg>
