<svg width="20" height="24" viewBox="0 0 20 24" fill="none" xmlns="http://www.w3.org/2000/svg">
<g clip-path="url(#clip0_755_1343)">
<path d="M19.7355 20.4866C18.9427 18.7061 18.1649 16.9191 17.3665 15.1405C17.2438 14.8659 17.2578 14.6719 17.4359 14.4199C18.4798 12.9402 19.0102 11.2881 19.0842 9.47573C19.3185 3.78192 14.0698 -0.846402 8.47349 0.130991C1.83322 1.29018 -1.35854 8.84881 2.45639 14.3992C2.63912 14.6654 2.66348 14.8678 2.53229 15.1602C1.71889 16.9659 0.926106 18.7802 0.12395 20.5906C-0.0194257 20.9149 -0.0915822 21.2785 0.21766 21.4846C0.439752 21.6318 0.799597 21.6767 1.07042 21.6243C1.54084 21.5334 1.98877 21.3309 2.44701 21.1763C2.9418 21.0095 3.43565 20.8427 3.94356 20.6722C4.33995 21.5915 4.71479 22.447 5.07932 23.3082C5.23113 23.6671 5.397 24.0073 5.85711 24.0007C6.29005 23.9942 6.45217 23.6765 6.60304 23.3307C7.289 21.7583 7.98994 20.1933 8.67122 18.619C8.77992 18.3678 8.90549 18.2704 9.19224 18.2891C9.6889 18.3229 10.1912 18.3247 10.6878 18.2901C10.9896 18.2685 11.1283 18.366 11.2445 18.6368C11.9239 20.2111 12.6258 21.777 13.3108 23.3495C13.4626 23.6971 13.636 24.0045 14.0689 23.9998C14.5037 23.9951 14.6705 23.6765 14.8167 23.3316C15.1878 22.4583 15.5673 21.5877 15.9637 20.6675C16.9195 20.9889 17.8229 21.285 18.7188 21.599C19.0777 21.7245 19.4207 21.8061 19.7121 21.4865C20.0035 21.167 19.8873 20.8315 19.7337 20.4857L19.7355 20.4866ZM5.85524 21.5352C5.57505 20.8896 5.32953 20.3226 5.08307 19.7557C4.7907 19.0857 4.54424 18.9788 3.83579 19.2159C3.26416 19.4071 2.69347 19.5992 2.00189 19.8316C2.6082 18.4578 3.16015 17.2077 3.73552 15.9023C4.81693 16.8638 6.00517 17.5563 7.41644 17.9818C6.90198 19.1531 6.39875 20.2983 5.85524 21.5362V21.5352ZM9.98971 16.9247C5.72967 16.9594 2.23336 13.4818 2.22773 9.20397C2.22211 4.94111 5.66688 1.44386 9.89413 1.42137C14.1813 1.39795 17.6617 4.86521 17.6795 9.17773C17.6973 13.4303 14.2629 16.8891 9.98971 16.9238V16.9247ZM15.9974 19.1916C15.378 18.9891 15.1053 19.1091 14.8467 19.6957C14.5909 20.2767 14.3435 20.8615 14.053 21.5343C13.5123 20.3095 13.0128 19.1784 12.4861 17.9846C13.8852 17.5573 15.0791 16.8769 16.1689 15.8986C16.7452 17.2058 17.3 18.4625 17.9007 19.8241C17.1951 19.5889 16.5972 19.3874 15.9974 19.1916Z" fill="#FD705C"/>
<path d="M13.8081 7.15478C13.1906 7.06295 12.5702 6.9936 11.9583 6.87365C11.7962 6.84179 11.6069 6.69373 11.5254 6.54661C11.2105 5.9731 10.9631 5.36118 10.6276 4.80079C10.4945 4.57964 10.219 4.3716 9.96978 4.30882C9.63148 4.22354 9.40752 4.48499 9.26039 4.7933C8.98582 5.37055 8.71594 5.95155 8.40201 6.50725C8.30549 6.6778 8.08902 6.84741 7.89973 6.88584C7.28968 7.01141 6.66744 7.07607 6.0499 7.16322C5.71254 7.21101 5.3958 7.30191 5.28241 7.67393C5.17184 8.03378 5.33583 8.30085 5.59353 8.54262C6.04896 8.96994 6.49408 9.40756 6.93452 9.85175C7.04509 9.96326 7.11725 10.1113 7.17535 10.1966C7.04416 10.9585 6.93733 11.6369 6.80801 12.3107C6.74429 12.6424 6.76584 12.9367 7.04603 13.1578C7.34778 13.3968 7.64952 13.3228 7.96064 13.1522C8.53508 12.8383 9.11327 12.5281 9.70364 12.247C9.84327 12.1804 10.0682 12.1795 10.2069 12.247C10.8113 12.5365 11.4007 12.857 11.9911 13.1766C12.2919 13.3396 12.6274 13.4174 12.8495 13.1466C13.0135 12.947 13.1128 12.6162 13.0894 12.3575C13.0341 11.7381 12.8963 11.1262 12.7783 10.5133C12.723 10.2303 12.7689 10.0167 13.0013 9.81052C13.4445 9.41787 13.8494 8.98025 14.2823 8.57542C14.5503 8.32522 14.7433 8.05533 14.6243 7.673C14.5016 7.27754 14.1567 7.20632 13.8091 7.15478H13.8081ZM11.4813 11.3108C10.4486 10.4655 9.47218 10.4468 8.43387 11.3117C8.88087 10.0663 8.61942 9.11144 7.47054 8.39737C8.78997 8.44142 9.61368 7.91945 9.93417 6.59534C10.3165 7.84542 11.069 8.48734 12.424 8.39644C11.2686 9.11988 11.0296 10.071 11.4804 11.3099L11.4813 11.3108Z" fill="#FD705C"/>
</g>
<defs>
<clipPath id="clip0_755_1343">
<rect width="19.8927" height="24" fill="white"/>
</clipPath>
</defs>
</svg>
