<svg width="30" height="34" viewBox="0 0 30 34" fill="none" xmlns="http://www.w3.org/2000/svg">
<path fill-rule="evenodd" clip-rule="evenodd" d="M0 25.117V12.4287H30V25.2187C30 30.4504 26.7069 33.667 21.438 33.667H8.54555C3.32602 33.667 0 30.3837 0 25.117ZM9.96 21.0673L12.84 23.6006L20.04 16.2006L22.2 18.1006L12.84 27.4006L7.8 22.9673L9.96 21.0673Z" fill="#44C584"/>
<path opacity="0.4" d="M0.00559998 12.4286C0.027005 11.4502 0.109332 9.50856 0.264107 8.88356C1.05445 5.36856 3.73831 3.13523 7.57476 2.81689H22.4266C26.2301 3.15189 28.9469 5.40023 29.7372 8.88356C29.8903 9.49189 29.9727 11.4486 29.9941 12.4286H0.00559998Z" fill="#44C584"/>
<path d="M8.84144 7.9835C9.56592 7.9835 10.1093 7.43516 10.1093 6.70016V1.6185C10.1093 0.883496 9.56592 0.333496 8.84144 0.333496C8.11696 0.333496 7.5736 0.883496 7.5736 1.6185V6.70016C7.5736 7.43516 8.11696 7.9835 8.84144 7.9835Z" fill="#44C584"/>
<path d="M21.1582 7.9835C21.8662 7.9835 22.4261 7.43516 22.4261 6.70016V1.6185C22.4261 0.883496 21.8662 0.333496 21.1582 0.333496C20.4338 0.333496 19.8904 0.883496 19.8904 1.6185V6.70016C19.8904 7.43516 20.4338 7.9835 21.1582 7.9835Z" fill="#44C584"/>
</svg>
