<svg width="30" height="34" viewBox="0 0 30 34" fill="none" xmlns="http://www.w3.org/2000/svg">
<path fill-rule="evenodd" clip-rule="evenodd" d="M0 25.117V12.4287H30V25.2187C30 30.4504 26.7069 33.667 21.438 33.667H8.54555C3.32602 33.667 0 30.3837 0 25.117ZM8.26564 21.017C7.50823 21.052 6.88255 20.4504 6.84962 19.6854C6.84962 18.9187 7.44237 18.2854 8.19978 18.2504C8.94072 18.2504 9.54994 18.8354 9.56641 19.5837C9.59934 20.352 9.00659 20.9854 8.26564 21.017ZM15.0329 21.017C14.2755 21.052 13.6498 20.4504 13.6169 19.6854C13.6169 18.9187 14.2097 18.2854 14.9671 18.2504C15.708 18.2504 16.3172 18.8354 16.3337 19.5837C16.3666 20.352 15.7739 20.9854 15.0329 21.017ZM21.7508 27.1504C20.9934 27.1337 20.3842 26.5004 20.3842 25.7337C20.3677 24.967 20.9769 24.3354 21.7344 24.3187H21.7508C22.5247 24.3187 23.1504 24.952 23.1504 25.7337C23.1504 26.517 22.5247 27.1504 21.7508 27.1504ZM13.6169 25.7337C13.6498 26.5004 14.2755 27.102 15.0329 27.067C15.7739 27.0354 16.3666 26.402 16.3337 25.6354C16.3172 24.8854 15.708 24.3004 14.9671 24.3004C14.2097 24.3354 13.6169 24.967 13.6169 25.7337ZM6.83315 25.7337C6.86608 26.5004 7.49177 27.102 8.24918 27.067C8.99012 27.0354 9.58288 26.402 9.54994 25.6354C9.53348 24.8854 8.92426 24.3004 8.18332 24.3004C7.42591 24.3354 6.83315 24.967 6.83315 25.7337ZM20.4007 19.6687C20.4007 18.902 20.9934 18.2854 21.7508 18.2687C22.4918 18.2687 23.0845 18.867 23.1175 19.602C23.1339 20.3687 22.5412 21.002 21.8002 21.017C21.0428 21.0337 20.4171 20.4504 20.4007 19.6854V19.6687Z" fill="#4E70F2"/>
<path opacity="0.4" d="M0.00559998 12.4286C0.027005 11.4502 0.109332 9.50856 0.264107 8.88356C1.05445 5.36856 3.73831 3.13523 7.57476 2.81689H22.4266C26.2301 3.15189 28.9469 5.40023 29.7372 8.88356C29.8903 9.49189 29.9727 11.4486 29.9941 12.4286H0.00559998Z" fill="#4E70F2"/>
<path d="M8.84144 7.9835C9.56592 7.9835 10.1093 7.43516 10.1093 6.70016V1.6185C10.1093 0.883496 9.56592 0.333496 8.84144 0.333496C8.11696 0.333496 7.5736 0.883496 7.5736 1.6185V6.70016C7.5736 7.43516 8.11696 7.9835 8.84144 7.9835Z" fill="#4E70F2"/>
<path d="M21.1582 7.9835C21.8662 7.9835 22.4261 7.43516 22.4261 6.70016V1.6185C22.4261 0.883496 21.8662 0.333496 21.1582 0.333496C20.4338 0.333496 19.8904 0.883496 19.8904 1.6185V6.70016C19.8904 7.43516 20.4338 7.9835 21.1582 7.9835Z" fill="#4E70F2"/>
</svg>
