<svg width="16" height="16" viewBox="0 0 16 16" fill="none" xmlns="http://www.w3.org/2000/svg">
<path d="M10.6066 1.00038C10.3227 0.995503 10.1265 1.20835 10.1179 1.54257M10.6066 1.00038C10.8747 1.00465 11.0757 1.21567 11.0897 1.5261M10.6066 1.00038L10.6082 0.900395C10.9383 0.905652 11.1737 1.16804 11.1896 1.52159M10.6066 1.00038L10.6083 0.900397C10.4393 0.897492 10.291 0.960158 10.1849 1.07713C10.0799 1.19288 10.0227 1.35435 10.018 1.54002L10.018 1.54004C10.0137 1.70707 10.0148 1.87509 10.0158 2.04611C10.0161 2.0899 10.0163 2.13388 10.0165 2.17809H5.98427C5.98441 2.13334 5.98462 2.08899 5.98483 2.04498C5.98562 1.88183 5.98638 1.72322 5.98347 1.56512C5.98012 1.37766 5.9296 1.21476 5.83116 1.0954C5.73122 0.974237 5.58882 0.906621 5.42174 0.900452M10.1179 1.54257L14.392 3.14108C13.893 2.57572 13.2618 2.29822 12.5087 2.29822H11.1922C11.1922 2.26442 11.1923 2.23111 11.1925 2.19822M10.1179 1.54257C10.1138 1.708 10.1148 1.87343 10.1158 2.04363C10.1161 2.0881 10.1163 2.13289 10.1165 2.17809L10.1179 1.54257ZM11.0897 1.5261C11.0973 1.69193 11.0956 1.85804 11.0938 2.03855C11.0933 2.09047 11.0928 2.14358 11.0925 2.19822H11.095H11.0979H11.1008H11.1037H11.1065H11.1094H11.1123H11.1151H11.118H11.1209H11.1237H11.1266H11.1294H11.1323H11.1352H11.138H11.1409H11.1437H11.1466H11.1495H11.1523H11.1552H11.158H11.1609H11.1637H11.1666H11.1695H11.1723H11.1752H11.178H11.1809H11.1837H11.1866H11.1894H11.1923H11.1925M11.0897 1.5261L11.1896 1.52158C11.1896 1.52158 11.1896 1.52159 11.1896 1.52159M11.0897 1.5261L11.1896 1.52159M11.1925 2.19822H11.1951H11.198H11.2008H11.2037H11.2065H11.2094H11.2122H11.215H11.2179H11.2207H11.2236H11.2264H11.2293H11.2321H11.235H11.2378H11.2406H11.2435H11.2463H11.2491H11.252H11.2548H11.2577H11.2605H11.2633H11.2662H11.269H11.2718H11.2747H11.2775H11.2803H11.2832H11.286H11.2888H11.2917H11.2945H11.2973H11.3002H11.303H11.3058H11.3086H11.3115H11.3143H11.3171H11.3199H11.3228H11.3256H11.3284H11.3312H11.3341H11.3369H11.3397H11.3425H11.3453H11.3482H11.351H11.3538H11.3566H11.3594H11.3623H11.3651H11.3679H11.3707H11.3735H11.3763H11.3792H11.382H11.3848H11.3876H11.3904H11.3932H11.396H11.3988H11.4017H11.4045H11.4073H11.4101H11.4129H11.4157H11.4185H11.4213H11.4241H11.4269H11.4297H11.4325H11.4354H11.4382H11.441H11.4438H11.4466H11.4494H11.4522H11.455H11.4578H11.4606H11.4634H11.4662H11.469H11.4718H11.4746H11.4774H11.4802H11.483H11.4858H11.4886H11.4914H11.4942H11.497H11.4997H11.5025H11.5053H11.5081H11.5109H11.5137H11.5165H11.5193H11.5221H11.5249H11.5277H11.5305H11.5332H11.536H11.5388H11.5416H11.5444H11.5472H11.55H11.5528H11.5556H11.5583H11.5611H11.5639H11.5667H11.5695H11.5723H11.575H11.5778H11.5806H11.5834H11.5862H11.589H11.5917H11.5945H11.5973H11.6001H11.6029H11.6056H11.6084H11.6112H11.614H11.6167H11.6195H11.6223H11.6251H11.6279H11.6306H11.6334H11.6362H11.639H11.6417H11.6445H11.6473H11.65H11.6528H11.6556H11.6584H11.6611H11.6639H11.6667H11.6694H11.6722H11.675H11.6778H11.6805H11.6833H11.6861H11.6888H11.6916H11.6944H11.6971H11.6999H11.7027H11.7054H11.7082H11.711H11.7137H11.7165H11.7193H11.722H11.7248H11.7275H11.7303H11.7331H11.7358H11.7386H11.7414H11.7441H11.7469H11.7496H11.7524H11.7552H11.7579H11.7607H11.7634H11.7662H11.769H11.7717H11.7745H11.7772H11.78H11.7827H11.7855H11.7882H11.791H11.7938H11.7965H11.7993H11.802H11.8048H11.8075H11.8103H11.813H11.8158H11.8185H11.8213H11.824H11.8268H11.8296H11.8323H11.8351H11.8378H11.8406H11.8433H11.8461H11.8488H11.8516H11.8543H11.8571H11.8598H11.8625H11.8653H11.868H11.8708H11.8735H11.8763H11.879H11.8818H11.8845H11.8873H11.89H11.8928H11.8955H11.8982H11.901H11.9037H11.9065H11.9092H11.912H11.9147H11.9175H11.9202H11.9229H11.9257H11.9284H11.9312H11.9339H11.9366H11.9394H11.9421H11.9449H11.9476H11.9503H11.9531H11.9558H11.9586H11.9613H11.964H11.9668H11.9695H11.9723H11.975H11.9777H11.9805H11.9832H11.9859H11.9887H11.9914H11.9941H11.9969H11.9996H12.0024H12.0051H12.0078H12.0106H12.0133H12.016H12.0188H12.0215H12.0242H12.027H12.0297H12.0324H12.0352H12.0379H12.0406H12.0434H12.0461H12.0488H12.0516H12.0543H12.057H12.0598H12.0625H12.0652H12.0679H12.0707H12.0734H12.0761H12.0789H12.0816H12.0843H12.0871H12.0898H12.0925H12.0952H12.098H12.1007H12.1034H12.1062H12.1089H12.1116H12.1143H12.1171H12.1198H12.1225H12.1252H12.128H12.1307H12.1334H12.1362H12.1389H12.1416H12.1443H12.1471H12.1498H12.1525H12.1552H12.158H12.1607H12.1634H12.1661H12.1689H12.1716H12.1743H12.177H12.1798H12.1825H12.1852H12.1879H12.1907H12.1934H12.1961H12.1988H12.2015H12.2043H12.207H12.2097H12.2124H12.2152H12.2179H12.2206H12.2233H12.226H12.2288H12.2315H12.2342H12.2369H12.2397H12.2424H12.2451H12.2478H12.2505H12.2533H12.256H12.2587H12.2614H12.2641H12.2669H12.2696H12.2723H12.275H12.2777H12.2805H12.2832H12.2859H12.2886H12.2913H12.2941H12.2968H12.2995H12.3022H12.3049H12.3077H12.3104H12.3131H12.3158H12.3185H12.3213H12.324H12.3267H12.3294H12.3321H12.3348H12.3376H12.3403H12.343H12.3457H12.3484H12.3512H12.3539H12.3566H12.3593H12.362H12.3647H12.3675H12.3702H12.3729H12.3756H12.3783H12.3811H12.3838H12.3865H12.3892H12.3919H12.3946H12.3974H12.4001H12.4028H12.4055H12.4082H12.4109H12.4137H12.4164H12.4191H12.4218H12.4245H12.4272H12.43H12.4327H12.4354H12.4381H12.4408H12.4435H12.4463H12.449H12.4517H12.4544H12.4571H12.4598H12.4626H12.4653H12.468H12.4707H12.4734H12.4761H12.4789H12.4816H12.4843H12.487H12.4897H12.4924H12.4952H12.4979H12.5006H12.5033H12.506H12.5087C13.2898 2.19822 13.9486 2.48753 14.467 3.07491L14.467 3.07495C14.8684 3.53027 15.0735 4.06803 15.0946 4.66094M11.1925 2.19822C11.1928 2.14539 11.1933 2.09366 11.1938 2.04283C11.1956 1.86078 11.1973 1.69023 11.1896 1.52159M15.0946 4.66094L4.8099 1.55989M15.0946 4.66094H15.0969L15.097 4.7608C15.0973 4.95049 15.0976 5.14019 15.0978 5.3299C15.1014 7.73154 15.1049 10.1337 15.0885 12.5358V12.5359C15.0784 13.9879 13.9787 15.0836 12.5269 15.09C9.51124 15.1034 6.49565 15.1028 3.48007 15.09M15.0946 4.66094L3.48007 15.09M5.42174 0.900452C5.42176 0.900453 5.42177 0.900454 5.42179 0.900455L5.418 1.00038L5.42168 0.90045C5.4217 0.900451 5.42172 0.900452 5.42174 0.900452ZM5.42174 0.900452C5.24843 0.893881 5.09523 0.959232 4.98533 1.07998C4.87651 1.19954 4.81531 1.36732 4.8099 1.55989M4.8099 1.55989C4.8099 1.55986 4.8099 1.55984 4.8099 1.55981L4.90986 1.5627L4.8099 1.55989ZM4.80841 2.19817C4.68923 2.19806 4.57149 2.19777 4.45482 2.19748C4.13667 2.19669 3.8265 2.19592 3.51673 2.19883M4.80841 2.19817L0.911715 12.5106C0.898919 9.93909 0.896482 7.36754 0.905013 4.79659L0.905013 4.79659C0.910076 3.29497 2.01459 2.21275 3.51673 2.19883M4.80841 2.19817C4.80855 2.23105 4.80864 2.26436 4.80864 2.29817M4.80841 2.19817C4.84163 2.1982 4.87496 2.19822 4.90842 2.19822L4.80864 2.29817M3.51673 2.19883L3.51766 2.29883M3.51673 2.19883L3.51766 2.29883M3.51766 2.29883C3.82684 2.29593 4.13602 2.29669 4.45383 2.29748C4.57079 2.29777 4.68891 2.29806 4.80864 2.29817M3.51766 2.29883C2.06881 2.31225 1.00989 3.35149 1.00501 4.79692L4.80864 2.29817M3.48007 15.09C2.01345 15.0842 0.918686 13.9767 0.911715 12.5107L3.48007 15.09ZM3.37817 3.39718L3.37809 3.39718C2.80941 3.41075 2.2901 3.79992 2.16454 4.34753V4.34788L2.16223 4.35843C2.12174 4.54361 2.10619 4.73642 2.09766 4.9368C2.09454 5.01018 2.09234 5.08574 2.09012 5.16229C2.08742 5.25546 2.08467 5.35008 2.08016 5.44403H13.887C13.8882 5.36479 13.8906 5.28735 13.893 5.21125C13.9001 4.98272 13.9068 4.76632 13.8797 4.5495L13.8797 4.54942C13.8094 3.98272 13.4891 3.56941 12.9554 3.47056L12.9554 3.47056C12.5441 3.39434 12.1245 3.38802 11.6892 3.38147C11.5265 3.37902 11.3617 3.37653 11.1943 3.37036C11.1946 3.42959 11.195 3.4864 11.1955 3.54134C11.197 3.72284 11.1984 3.88379 11.1921 4.04333C11.1921 4.04334 11.1921 4.04335 11.1921 4.04336L11.0922 4.03944L3.37817 3.39718ZM3.37817 3.39718C3.71672 3.38885 4.05462 3.39081 4.40887 3.39287C4.53935 3.39363 4.67206 3.3944 4.80783 3.39467C4.80767 3.43575 4.80745 3.47654 4.80723 3.51708C4.80633 3.68231 4.80545 3.84345 4.80928 4.00341L3.37817 3.39718ZM12.3576 13.9166C9.45382 13.9178 6.55065 13.9178 3.64687 13.9166H3.64683C3.12981 13.9166 2.74326 13.7742 2.48575 13.5172C2.22825 13.2602 2.08563 12.8745 2.08534 12.3588C2.08452 11.1395 2.08479 9.9199 2.08507 8.70036C2.0852 8.0906 2.08534 7.48085 2.08534 6.87115V6.64059H13.9161V6.86749C13.9161 7.47719 13.9162 8.08694 13.9164 8.6967C13.9166 9.91624 13.9169 11.1358 13.9161 12.3552C13.9158 12.8715 13.7732 13.258 13.5159 13.5157C13.2587 13.7734 12.873 13.9163 12.3576 13.9166ZM12.3576 13.9166L12.3576 14.0166M12.3576 13.9166L12.3576 14.0166M12.3576 14.0166C9.45384 14.0178 6.55064 14.0178 3.64683 14.0166L14.0161 6.86749C14.0161 7.47715 14.0162 8.08687 14.0164 8.69663C14.0166 9.91619 14.0169 11.1359 14.0161 12.3552C14.0155 13.4238 13.4245 14.016 12.3576 14.0166ZM14.9978 5.32989C14.9976 5.14024 14.9973 4.95059 14.997 4.76094L12.5264 14.99C13.9235 14.9839 14.9787 13.9324 14.9885 12.5352C15.0049 10.1334 15.0014 7.73165 14.9978 5.32989ZM10.0167 2.27809H5.98409H10.0167ZM5.88484 3.4027C5.88475 3.36993 5.8847 3.33663 5.8847 3.3027H5.9847L5.88484 3.4027Z" fill="#101928" stroke="#101928" stroke-width="0.2"/>
<path d="M5.65247 9.54396C5.77364 9.42376 5.92089 9.36085 6.07835 9.36899C6.23412 9.37704 6.38587 9.45383 6.52079 9.58552L6.5208 9.58553C6.72428 9.78421 6.92349 9.98829 7.12911 10.1989C7.20199 10.2736 7.27567 10.3491 7.35064 10.4255C7.54188 10.2333 7.73104 10.0434 7.9186 9.85509C8.44156 9.33007 8.95215 8.81747 9.46094 8.30296L9.46097 8.30293C9.56493 8.19787 9.68221 8.11638 9.81562 8.0849C9.95213 8.05268 10.0935 8.07565 10.2372 8.15775L10.2489 8.1644L10.2499 8.16541C10.4173 8.26573 10.5141 8.42277 10.5256 8.5992C10.5373 8.77779 10.4609 8.96273 10.3089 9.11728C9.89381 9.53974 9.47422 9.95837 9.0551 10.3765C8.8845 10.5467 8.71398 10.7169 8.54387 10.8871L8.54378 10.8872C8.4669 10.964 8.39004 11.0416 8.31296 11.1194C8.14682 11.2872 7.97962 11.456 7.80879 11.6199L7.80878 11.6199C7.66712 11.7558 7.51438 11.8367 7.35096 11.8378C7.18697 11.8388 7.03492 11.7594 6.89528 11.6229C6.48767 11.2247 6.08559 10.8216 5.68781 10.4136L5.68778 10.4136C5.55647 10.2788 5.48066 10.1261 5.47376 9.96987C5.46678 9.81203 5.5308 9.66436 5.65247 9.54396ZM5.65247 9.54396C5.65249 9.54394 5.65251 9.54393 5.65252 9.54391L5.72285 9.615L5.65242 9.54401C5.65244 9.54399 5.65245 9.54398 5.65247 9.54396Z" fill="#101928" stroke="#101928" stroke-width="0.2"/>
</svg>
