<svg width="17" height="19" viewBox="0 0 17 19" fill="none" xmlns="http://www.w3.org/2000/svg">
<path fill-rule="evenodd" clip-rule="evenodd" d="M16.2222 8.25293H1.3689C1.0239 8.25293 0.743896 7.97293 0.743896 7.62793C0.743896 7.28293 1.0239 7.00293 1.3689 7.00293H16.2222C16.5672 7.00293 16.8472 7.28293 16.8472 7.62793C16.8472 7.97293 16.5672 8.25293 16.2222 8.25293Z" fill="black"/>
<path fill-rule="evenodd" clip-rule="evenodd" d="M12.5011 11.5078C12.1561 11.5078 11.8728 11.2278 11.8728 10.8828C11.8728 10.5378 12.1486 10.2578 12.4936 10.2578H12.5011C12.8461 10.2578 13.1261 10.5378 13.1261 10.8828C13.1261 11.2278 12.8461 11.5078 12.5011 11.5078Z" fill="black"/>
<path fill-rule="evenodd" clip-rule="evenodd" d="M8.80314 11.5078C8.45814 11.5078 8.1748 11.2278 8.1748 10.8828C8.1748 10.5378 8.45064 10.2578 8.79564 10.2578H8.80314C9.14814 10.2578 9.42814 10.5378 9.42814 10.8828C9.42814 11.2278 9.14814 11.5078 8.80314 11.5078Z" fill="black"/>
<path fill-rule="evenodd" clip-rule="evenodd" d="M5.09743 11.5078C4.75243 11.5078 4.46826 11.2278 4.46826 10.8828C4.46826 10.5378 4.74493 10.2578 5.08993 10.2578H5.09743C5.44243 10.2578 5.72243 10.5378 5.72243 10.8828C5.72243 11.2278 5.44243 11.5078 5.09743 11.5078Z" fill="black"/>
<path fill-rule="evenodd" clip-rule="evenodd" d="M12.5011 14.7471C12.1561 14.7471 11.8728 14.4671 11.8728 14.1221C11.8728 13.7771 12.1486 13.4971 12.4936 13.4971H12.5011C12.8461 13.4971 13.1261 13.7771 13.1261 14.1221C13.1261 14.4671 12.8461 14.7471 12.5011 14.7471Z" fill="black"/>
<path fill-rule="evenodd" clip-rule="evenodd" d="M8.80314 14.7471C8.45814 14.7471 8.1748 14.4671 8.1748 14.1221C8.1748 13.7771 8.45064 13.4971 8.79564 13.4971H8.80314C9.14814 13.4971 9.42814 13.7771 9.42814 14.1221C9.42814 14.4671 9.14814 14.7471 8.80314 14.7471Z" fill="black"/>
<path fill-rule="evenodd" clip-rule="evenodd" d="M5.09743 14.7471C4.75243 14.7471 4.46826 14.4671 4.46826 14.1221C4.46826 13.7771 4.74493 13.4971 5.08993 13.4971H5.09743C5.44243 13.4971 5.72243 13.7771 5.72243 14.1221C5.72243 14.4671 5.44243 14.7471 5.09743 14.7471Z" fill="black"/>
<path fill-rule="evenodd" clip-rule="evenodd" d="M12.1614 4.82551C11.8164 4.82551 11.5364 4.54551 11.5364 4.20051V1.45801C11.5364 1.11301 11.8164 0.833008 12.1614 0.833008C12.5064 0.833008 12.7864 1.11301 12.7864 1.45801V4.20051C12.7864 4.54551 12.5064 4.82551 12.1614 4.82551Z" fill="black"/>
<path fill-rule="evenodd" clip-rule="evenodd" d="M5.42944 4.82551C5.08444 4.82551 4.80444 4.54551 4.80444 4.20051V1.45801C4.80444 1.11301 5.08444 0.833008 5.42944 0.833008C5.77444 0.833008 6.05444 1.11301 6.05444 1.45801V4.20051C6.05444 4.54551 5.77444 4.82551 5.42944 4.82551Z" fill="black"/>
<mask id="mask0_1792_211" style="mask-type:luminance" maskUnits="userSpaceOnUse" x="0" y="2" width="17" height="17">
<path fill-rule="evenodd" clip-rule="evenodd" d="M0.666748 2.14844H16.9167V18.7492H0.666748V2.14844Z" fill="white"/>
</mask>
<g mask="url(#mask0_1792_211)">
<path fill-rule="evenodd" clip-rule="evenodd" d="M5.26758 3.39844C3.10675 3.39844 1.91675 4.55094 1.91675 6.64344V14.1843C1.91675 16.3226 3.10675 17.4993 5.26758 17.4993H12.3159C14.4767 17.4993 15.6667 16.3443 15.6667 14.2476V6.64344C15.6701 5.61427 15.3934 4.81427 14.8442 4.26427C14.2792 3.6976 13.4084 3.39844 12.3234 3.39844H5.26758ZM12.3159 18.7493H5.26758C2.43008 18.7493 0.666748 17.0001 0.666748 14.1843V6.64344C0.666748 3.8701 2.43008 2.14844 5.26758 2.14844H12.3234C13.7476 2.14844 14.9251 2.5751 15.7292 3.38094C16.5101 4.1651 16.9209 5.2926 16.9167 6.6451V14.2476C16.9167 17.0243 15.1534 18.7493 12.3159 18.7493Z" fill="black"/>
</g>
</svg>
