<svg width="20" height="18" viewBox="0 0 20 18" fill="none" xmlns="http://www.w3.org/2000/svg">
<path d="M13.3176 0.354668C13.9012 0.586972 14.3139 1.00569 14.6838 1.61956L14.8057 1.83142L15.258 2.69857L15.2728 2.72279L15.2864 2.74387L15.3248 2.79637C15.5308 3.02088 15.8756 3.1565 16.1032 3.1565C18.188 3.1565 19.8907 4.79376 19.9951 6.85204L20.0002 7.0525V12.8475C20.0002 15.5195 17.89 17.7 15.2457 17.8129L15.0302 17.8175H4.9702C2.29754 17.8175 0.117671 15.7076 0.00479199 13.0631L0.000200272 12.8475V7.0525C0.000200272 4.90109 1.74518 3.1565 3.8972 3.1565C4.12397 3.1565 4.46928 3.02068 4.67564 2.79637L4.68275 2.78799L4.69165 2.77634L4.74307 2.69745L5.19402 1.8317C5.59597 1.10118 6.03323 0.612829 6.68208 0.354573C7.87109 -0.118207 12.1295 -0.118207 13.3176 0.354668ZM7.23655 1.74833C7.01516 1.83645 6.81472 2.04041 6.60082 2.39401L6.50822 2.5548L6.12336 3.2989L6.02863 3.47033C5.94956 3.60186 5.87046 3.71289 5.78015 3.81129C5.31973 4.31175 4.65867 4.6008 4.07102 4.64922L3.8972 4.6565L3.7331 4.66203C2.54017 4.74269 1.58641 5.69623 1.50573 6.8885L1.5002 7.0525V12.8475C1.5002 14.6998 2.95194 16.2135 4.77981 16.3124L4.9702 16.3175H15.0302C16.8821 16.3175 18.3962 14.8652 18.4951 13.0378L18.5002 12.8475V7.0525C18.5002 5.78472 17.5144 4.74636 16.2673 4.66203L16.1032 4.6565L15.9291 4.64922C15.3405 4.60079 14.6795 4.31166 14.2196 3.81063C14.1305 3.71353 14.0519 3.60329 13.9732 3.47287L13.9544 3.44054L13.9318 3.40039L13.8158 3.18264L13.4918 2.55508C13.2731 2.15797 13.0728 1.91528 12.8566 1.79331L12.7628 1.74833L12.6435 1.70867C11.6144 1.41778 8.03461 1.431 7.23655 1.74833ZM9.9999 6.1992C12.1701 6.1992 13.9289 7.95799 13.9289 10.1282C13.9289 12.2984 12.1701 14.0572 9.9999 14.0572C7.82969 14.0572 6.0709 12.2984 6.0709 10.1282C6.0709 7.95799 7.82969 6.1992 9.9999 6.1992ZM9.9999 7.6992C8.65811 7.6992 7.5709 8.78641 7.5709 10.1282C7.5709 11.47 8.65811 12.5572 9.9999 12.5572C11.3417 12.5572 12.4289 11.47 12.4289 10.1282C12.4289 8.78641 11.3417 7.6992 9.9999 7.6992ZM15.5045 5.5002C16.0568 5.5002 16.5045 5.94792 16.5045 6.5002C16.5045 7.01304 16.1185 7.43571 15.6211 7.49347L15.5045 7.5002C14.9432 7.5002 14.4955 7.05248 14.4955 6.5002C14.4955 5.98736 14.8815 5.56469 15.3789 5.50693L15.5045 5.5002Z" fill="white"/>
</svg>
