<svg width="30" height="34" viewBox="0 0 30 34" fill="none" xmlns="http://www.w3.org/2000/svg">
<path fill-rule="evenodd" clip-rule="evenodd" d="M0 25.117V12.4287H30V25.2187C30 30.4504 26.7069 33.667 21.438 33.667H8.54555C3.32602 33.667 0 30.3837 0 25.117ZM17.8479 20.9354C17.3994 21.3561 16.9444 21.783 16.4765 22.2217L16.4774 22.2222C16.5064 22.2415 16.534 22.2584 16.5599 22.2743C16.611 22.3056 16.6559 22.333 16.693 22.3679C17.8536 23.4543 19.0126 24.5424 20.1715 25.6305L20.1734 25.6323C20.1875 25.6457 20.2018 25.6589 20.216 25.6722C20.2641 25.7168 20.3121 25.7613 20.3549 25.8101C20.8386 26.361 20.574 27.2009 19.8558 27.3524C19.4228 27.4435 19.0256 27.37 18.691 27.0523C17.9347 26.335 17.174 25.6217 16.4133 24.9084C16.0085 24.529 15.6038 24.1495 15.1997 23.7694C15.1619 23.7339 15.1304 23.6925 15.096 23.6474C15.0791 23.6252 15.0616 23.6022 15.0423 23.5785C15.0163 23.6017 14.993 23.6224 14.9716 23.6413C14.9193 23.6877 14.8788 23.7237 14.8393 23.7608C14.5531 24.0294 14.2669 24.2981 13.9806 24.5667C13.1226 25.3721 12.2645 26.1775 11.4062 26.9825C11.3963 26.9917 11.3865 27.0008 11.3768 27.01C11.3194 27.0639 11.262 27.1178 11.1988 27.1648C10.5414 27.6525 9.57741 27.3479 9.42082 26.5999C9.34296 26.2263 9.48862 25.9193 9.77205 25.6557C10.3355 25.1321 10.8981 24.6076 11.4607 24.0831C12.0825 23.5034 12.7042 22.9238 13.3272 22.3453C13.3652 22.3099 13.4159 22.2863 13.4665 22.2626C13.4899 22.2517 13.5133 22.2408 13.5354 22.2287C13.5321 22.2131 13.5287 22.1976 13.5253 22.1821C13.522 22.1666 13.5186 22.1511 13.5153 22.1355C13.4938 22.1211 13.4713 22.1076 13.4489 22.0941C13.4029 22.0664 13.3568 22.0387 13.3189 22.0034C12.7686 21.4886 12.2192 20.973 11.6697 20.4575C11.0593 19.8847 10.4489 19.3118 9.83722 18.7402C9.5879 18.507 9.46543 18.2328 9.50874 17.9072C9.56341 17.4975 9.80485 17.2089 10.2213 17.0763C10.6377 16.9433 11.0138 17.0373 11.3252 17.3288C12.1273 18.0796 12.9281 18.8313 13.7289 19.5831C14.0929 19.9247 14.4568 20.2664 14.8209 20.608C14.8566 20.6417 14.8935 20.6741 14.9328 20.7086C14.9548 20.7278 14.9775 20.7478 15.0011 20.7689C15.025 20.7478 15.0479 20.7278 15.07 20.7085C15.1089 20.6745 15.1455 20.6426 15.1809 20.6097C15.5318 20.2824 15.8825 19.955 16.2332 19.6276C17.0661 18.8502 17.8989 18.0728 18.7339 17.2972C19.1643 16.8974 19.8287 16.9043 20.2433 17.3025C20.6532 17.6966 20.6475 18.3013 20.225 18.7044C19.9965 18.9223 19.7657 19.138 19.5349 19.3537C19.4299 19.4518 19.325 19.5499 19.2203 19.6482C18.765 20.0751 18.3099 20.502 17.8479 20.9354Z" fill="#F56767"/>
<path opacity="0.4" d="M0.00559998 12.4286C0.027005 11.4502 0.109332 9.50856 0.264107 8.88356C1.05445 5.36856 3.73831 3.13523 7.57476 2.81689H22.4266C26.2301 3.15189 28.9469 5.40023 29.7372 8.88356C29.8903 9.49189 29.9727 11.4486 29.9941 12.4286H0.00559998Z" fill="#F56767"/>
<path d="M8.84145 7.9835C9.56593 7.9835 10.1093 7.43516 10.1093 6.70016V1.6185C10.1093 0.883496 9.56593 0.333496 8.84145 0.333496C8.11698 0.333496 7.57362 0.883496 7.57362 1.6185V6.70016C7.57362 7.43516 8.11698 7.9835 8.84145 7.9835Z" fill="#F56767"/>
<path d="M21.1582 7.9835C21.8663 7.9835 22.4261 7.43516 22.4261 6.70016V1.6185C22.4261 0.883496 21.8663 0.333496 21.1582 0.333496C20.4338 0.333496 19.8904 0.883496 19.8904 1.6185V6.70016C19.8904 7.43516 20.4338 7.9835 21.1582 7.9835Z" fill="#F56767"/>
</svg>
