<svg width="17" height="17" viewBox="0 0 17 17" fill="none" xmlns="http://www.w3.org/2000/svg">
<path fill-rule="evenodd" clip-rule="evenodd" d="M16.5498 1.70711C16.9404 1.31658 16.9404 0.683417 16.5498 0.292893C16.1593 -0.0976311 15.5261 -0.0976311 15.1356 0.292893L8.42136 7.00715L1.70711 0.292893C1.31658 -0.0976311 0.683417 -0.0976311 0.292893 0.292893C-0.0976311 0.683417 -0.0976311 1.31658 0.292893 1.70711L7.00715 8.42136L0.292893 15.1356C-0.0976311 15.5261 -0.0976311 16.1593 0.292893 16.5498C0.683417 16.9404 1.31658 16.9404 1.70711 16.5498L8.42136 9.83558L15.1356 16.5498C15.5261 16.9404 16.1593 16.9404 16.5498 16.5498C16.9404 16.1593 16.9404 15.5261 16.5498 15.1356L9.83558 8.42136L16.5498 1.70711Z" fill="black"/>
</svg>
