<svg width="25" height="24" viewBox="0 0 25 24" fill="none" xmlns="http://www.w3.org/2000/svg">
<path d="M0.105469 11.4C0.105469 5.10395 5.20942 0 11.5055 0H12.7055C19.0015 0 24.1055 5.10395 24.1055 11.4V12.6C24.1055 18.896 19.0015 24 12.7055 24H11.5055C5.20942 24 0.105469 18.896 0.105469 12.6V11.4Z" fill="#FBFBFB"/>
<path fill-rule="evenodd" clip-rule="evenodd" d="M12.7055 0.42H11.5055C5.44138 0.42 0.525469 5.33591 0.525469 11.4V12.6C0.525469 18.6641 5.44138 23.58 11.5055 23.58H12.7055C18.7696 23.58 23.6855 18.6641 23.6855 12.6V11.4C23.6855 5.33591 18.7696 0.42 12.7055 0.42ZM11.5055 0C5.20942 0 0.105469 5.10395 0.105469 11.4V12.6C0.105469 18.896 5.20942 24 11.5055 24H12.7055C19.0015 24 24.1055 18.896 24.1055 12.6V11.4C24.1055 5.10395 19.0015 0 12.7055 0H11.5055Z" fill="#555555"/>
<path d="M11.0393 8.09211H13.1709C13.1709 7.80945 13.0586 7.53836 12.8587 7.33848C12.6589 7.13861 12.3878 7.02632 12.1051 7.02632C11.8224 7.02632 11.5514 7.13861 11.3515 7.33848C11.1516 7.53836 11.0393 7.80945 11.0393 8.09211ZM10.3288 8.09211C10.3288 7.621 10.5159 7.16919 10.8491 6.83607C11.1822 6.50294 11.634 6.3158 12.1051 6.3158C12.5762 6.3158 13.028 6.50294 13.3612 6.83607C13.6943 7.16919 13.8814 7.621 13.8814 8.09211H17.4341C17.5283 8.09211 17.6186 8.12954 17.6853 8.19617C17.7519 8.26279 17.7893 8.35315 17.7893 8.44738C17.7893 8.5416 17.7519 8.63196 17.6853 8.69858C17.6186 8.76521 17.5283 8.80264 17.4341 8.80264H16.6852L15.8368 16.1523C15.7768 16.6719 15.528 17.1512 15.1375 17.4992C14.7471 17.8471 14.2424 18.0394 13.7194 18.0395H10.4908C9.96781 18.0394 9.4631 17.8471 9.07268 17.4992C8.68226 17.1512 8.43339 16.6719 8.37342 16.1523L7.52506 8.80264H6.77616C6.68194 8.80264 6.59158 8.76521 6.52495 8.69858C6.45833 8.63196 6.4209 8.5416 6.4209 8.44738C6.4209 8.35315 6.45833 8.26279 6.52495 8.19617C6.59158 8.12954 6.68194 8.09211 6.77616 8.09211H10.3288ZM11.3946 10.9342C11.3946 10.84 11.3572 10.7496 11.2905 10.683C11.2239 10.6164 11.1335 10.579 11.0393 10.579C10.9451 10.579 10.8547 10.6164 10.7881 10.683C10.7215 10.7496 10.6841 10.84 10.6841 10.9342V15.1974C10.6841 15.2916 10.7215 15.382 10.7881 15.4486C10.8547 15.5152 10.9451 15.5526 11.0393 15.5526C11.1335 15.5526 11.2239 15.5152 11.2905 15.4486C11.3572 15.382 11.3946 15.2916 11.3946 15.1974V10.9342ZM13.1709 10.579C13.0767 10.579 12.9863 10.6164 12.9197 10.683C12.8531 10.7496 12.8156 10.84 12.8156 10.9342V15.1974C12.8156 15.2916 12.8531 15.382 12.9197 15.4486C12.9863 15.5152 13.0767 15.5526 13.1709 15.5526C13.2651 15.5526 13.3555 15.5152 13.4221 15.4486C13.4887 15.382 13.5262 15.2916 13.5262 15.1974V10.9342C13.5262 10.84 13.4887 10.7496 13.4221 10.683C13.3555 10.6164 13.2651 10.579 13.1709 10.579Z" fill="#555555"/>
</svg>
