<svg width="24" height="24" viewBox="0 0 24 24" fill="none" xmlns="http://www.w3.org/2000/svg">
<path d="M0 11.4C0 5.10395 5.10395 0 11.4 0H12.6C18.896 0 24 5.10395 24 11.4V12.6C24 18.896 18.896 24 12.6 24H11.4C5.10395 24 0 18.896 0 12.6V11.4Z" fill="#FBFBFB"/>
<path fill-rule="evenodd" clip-rule="evenodd" d="M12.6 0.42H11.4C5.33591 0.42 0.42 5.33591 0.42 11.4V12.6C0.42 18.6641 5.33591 23.58 11.4 23.58H12.6C18.6641 23.58 23.58 18.6641 23.58 12.6V11.4C23.58 5.33591 18.6641 0.42 12.6 0.42ZM11.4 0C5.10395 0 0 5.10395 0 11.4V12.6C0 18.896 5.10395 24 11.4 24H12.6C18.896 24 24 18.896 24 12.6V11.4C24 5.10395 18.896 0 12.6 0H11.4Z" fill="#555555"/>
<path d="M5.7488 18.9474C5.65261 18.9472 5.55751 18.927 5.46954 18.8881C5.38157 18.8492 5.30266 18.7924 5.23783 18.7214C5.17183 18.6509 5.12146 18.5673 5.09004 18.476C5.05861 18.3847 5.04684 18.2878 5.05549 18.1917L5.22535 16.3239L13.0722 8.47981L15.5244 10.9313L7.67966 18.7747L5.81189 18.9446C5.79091 18.9465 5.76986 18.9475 5.7488 18.9474ZM16.0139 10.4412L13.5624 7.98964L15.0329 6.51913C15.0973 6.45467 15.1737 6.40353 15.2579 6.36864C15.3421 6.33375 15.4323 6.3158 15.5234 6.3158C15.6145 6.3158 15.7047 6.33375 15.7889 6.36864C15.8731 6.40353 15.9495 6.45467 16.0139 6.51913L17.4844 7.98964C17.5489 8.05403 17.6 8.13049 17.6349 8.21466C17.6698 8.29883 17.6878 8.38904 17.6878 8.48015C17.6878 8.57127 17.6698 8.66148 17.6349 8.74565C17.6 8.82982 17.5489 8.90628 17.4844 8.97067L16.0146 10.4405L16.0139 10.4412Z" fill="#555555"/>
</svg>
