<svg width="20" height="20" viewBox="0 0 20 20" fill="none" xmlns="http://www.w3.org/2000/svg">
<g clip-path="url(#clip0_1184_2406)">
<path d="M19.9994 2.1838C19.9973 0.840543 19.1564 0.00309012 17.8055 0.00170246C14.8206 0.0003148 5.16911 -0.000378983 2.18425 0.00239634C0.839605 0.00309017 0.00284598 0.8454 0.00145832 2.19559C7.06594e-05 5.17906 -0.000623123 14.8292 0.0021522 17.8134C0.00353986 19.1615 0.840299 19.9934 2.19466 19.9948C5.17951 19.9968 14.831 19.9968 17.8159 19.9948C19.1598 19.9941 19.998 19.1504 19.9994 17.8023C20.0015 16.3216 19.9994 11.5084 19.9994 10.0277C19.9994 8.52419 20.0008 3.68733 19.9994 2.1838ZM17.673 18.5183C16.2041 18.519 11.4013 18.5183 9.93242 18.5183C8.47469 18.5183 3.68362 18.5183 2.22657 18.5183C1.6611 18.5183 1.48487 18.3476 1.4807 17.7724C1.47515 17.0092 1.47932 12.9127 1.47932 12.1495C1.47932 9.97568 1.47932 4.46789 1.47932 2.29412C1.47932 1.63012 1.63265 1.47817 2.30012 1.47817C5.21559 1.47817 14.797 1.47748 17.7125 1.47817C18.371 1.47817 18.5229 1.63359 18.5229 2.30522C18.5229 5.20751 18.5229 14.7772 18.5229 17.6795C18.5229 18.3407 18.3432 18.5176 17.673 18.5183Z" fill="#5679FF"/>
<path d="M13.8224 10.7122C14.3095 10.7025 14.5912 10.4042 14.5828 9.95388C14.5752 9.52023 14.2977 9.24756 13.8252 9.22605C13.5601 9.21425 13.2937 9.22258 13.028 9.22258C11.8491 9.22258 8.00297 9.21842 6.82415 9.22466C6.31627 9.22744 6.03804 9.45987 6.00405 9.88172C5.96242 10.3938 6.24342 10.7053 6.78669 10.7136C7.51451 10.7254 10.9097 10.7164 11.6382 10.7164C12.3667 10.7164 13.0946 10.7268 13.8231 10.7122H13.8224Z" fill="#5679FF"/>
<path d="M6.82086 6.49353C7.75614 6.50117 8.69143 6.50117 9.62671 6.49353C10.1464 6.48937 10.4399 6.21392 10.4433 5.75599C10.4468 5.28419 10.1485 5.01082 9.60589 5.00319C9.1556 4.99694 8.7053 5.0018 8.25501 5.0018C7.78181 5.0018 7.30793 4.99694 6.83474 5.00319C6.29355 5.01082 5.9952 5.28627 6.00006 5.75877C6.00561 6.216 6.2991 6.48937 6.82017 6.49353H6.82086Z" fill="#5679FF"/>
<path d="M10.9306 13.4529C10.413 13.4301 7.2267 13.4307 6.7091 13.4529C6.26505 13.4717 6.00139 13.7679 6.00001 14.1884C5.99862 14.6089 6.26158 14.8968 6.70424 14.9301C6.9561 14.9488 7.21074 14.9336 7.46399 14.9336V14.935C7.72903 14.935 10.6614 14.9502 10.9251 14.9315C11.3684 14.9003 11.63 14.6158 11.6314 14.1933C11.6328 13.77 11.3733 13.4724 10.9299 13.4529H10.9306Z" fill="#5679FF"/>
</g>
<defs>
<clipPath id="clip0_1184_2406">
<rect width="20" height="20" fill="white"/>
</clipPath>
</defs>
</svg>
