<svg width="40" height="40" viewBox="0 0 40 40" fill="none" xmlns="http://www.w3.org/2000/svg">
<path opacity="0.4" d="M34.6872 8.42105C34.7973 7.10943 34.7756 5.87361 34.0781 4.75062C32.9617 2.95066 31.2345 2.70209 29.4205 2.80081C29.3154 0.61653 29.0284 0.0347612 28.0922 0.00126535C27.1159 -0.0322305 26.7872 0.591849 26.6821 2.76202H18.7387C18.6252 1.64256 19.0408 0.110567 17.4487 0.0488647C15.6665 -0.0216528 16.1388 1.66724 15.9969 2.74616H8.05355C7.95176 0.613004 7.65805 -0.0428081 6.72688 0.0188947C4.99469 0.133486 5.44025 1.64256 5.31343 2.84312C3.76647 2.7109 2.32465 2.85193 1.18488 4.06836C0.0401022 5.28831 -0.111756 6.77976 0.0584588 8.42105H34.6872Z" fill="#4E70F2"/>
<path d="M34.7352 19.174V10.5264H0.0675711C0.0374806 10.6325 0.0107335 10.6847 0.0107335 10.7369C0.00739009 17.4462 -0.0160136 24.1555 0.019092 30.8631C0.0307938 32.9362 1.76601 34.627 3.82721 34.7179C4.63464 34.7533 5.44374 34.728 6.25117 34.7297C10.5959 34.7297 14.9423 34.7297 19.3639 34.7297C16.2379 24.8156 25.3202 16.0417 34.7368 19.174H34.7352ZM10.7229 29.3239C9.80519 29.3592 8.88242 29.3609 7.96466 29.3205C7.22577 29.2885 6.70587 28.7092 6.69417 28.012C6.68247 27.2761 7.21741 26.7018 8.0031 26.653C8.47452 26.6243 8.95095 26.6479 9.42404 26.6462C9.84197 26.6462 10.2616 26.6277 10.6778 26.6496C11.4719 26.6917 12.0185 27.2356 12.0319 27.9665C12.0453 28.6957 11.5036 29.2936 10.7229 29.3239ZM6.69417 22.6314C6.67745 21.8972 7.21239 21.2976 7.99307 21.2673C8.91083 21.232 9.83361 21.232 10.7514 21.2673C11.4919 21.2976 12.0152 21.8685 12.0319 22.5674C12.0503 23.2966 11.5103 23.8844 10.7313 23.9349C10.2599 23.9652 9.78513 23.9399 9.31037 23.9399C8.86403 23.9399 8.41601 23.9652 7.97301 23.9332C7.23245 23.8793 6.70921 23.3269 6.6925 22.6297L6.69417 22.6314ZM10.7581 18.5442C10.2866 18.5779 9.81188 18.5509 9.33712 18.5509C8.89077 18.5509 8.44443 18.5762 7.99976 18.5459C7.21908 18.4937 6.67912 17.9127 6.69417 17.1835C6.70921 16.4795 7.22409 15.9103 7.968 15.8783C8.88576 15.8396 9.80686 15.8413 10.7263 15.875C11.507 15.9036 12.0469 16.5031 12.0336 17.234C12.0202 17.9312 11.4986 18.4886 10.7597 18.5425L10.7581 18.5442ZM17.3562 18.5509C16.9099 18.5509 16.4635 18.5762 16.0189 18.5459C15.2415 18.492 14.7016 17.9042 14.72 17.175C14.7384 16.4728 15.2566 15.9069 16.0005 15.8766C16.9182 15.8396 17.841 15.8396 18.7588 15.8766C19.5361 15.9069 20.0761 16.5132 20.0577 17.2424C20.041 17.9396 19.5177 18.492 18.7755 18.5442C18.3041 18.5779 17.8293 18.5509 17.3546 18.5509H17.3562Z" fill="#4E70F2"/>
<path d="M30.6016 21.0528C25.3672 21.024 21.0867 25.2281 21.0528 30.4283C21.0173 35.6995 25.2454 39.9864 30.4917 40C35.716 40.0118 39.9796 35.7891 39.9999 30.5822C40.0202 25.3533 35.8073 21.0832 30.6016 21.0545V21.0528ZM34.4222 31.8725C33.1842 31.8877 31.9445 31.8877 30.7048 31.8725C29.7019 31.8606 29.1911 31.3584 29.1776 30.3691C29.1607 29.1312 29.1641 27.8916 29.1776 26.652C29.1877 25.7202 29.7103 25.1317 30.5035 25.1182C31.3255 25.1047 31.8582 25.7135 31.8751 26.6943C31.8887 27.4536 31.8887 28.2146 31.8971 28.9739C31.8971 28.9993 31.9123 29.0247 31.9614 29.1735C32.7918 29.1735 33.6036 29.1616 34.4137 29.1769C35.3388 29.1921 35.9274 29.7265 35.9308 30.5213C35.9341 31.3144 35.3405 31.8606 34.4205 31.8725H34.4222Z" fill="#4E70F2"/>
</svg>
