<svg width="30" height="34" viewBox="0 0 30 34" fill="none" xmlns="http://www.w3.org/2000/svg">
<path fill-rule="evenodd" clip-rule="evenodd" d="M0 25.117V12.4287H30V25.2187C30 30.4504 26.7069 33.667 21.438 33.667H8.54555C3.32602 33.667 0 30.3837 0 25.117ZM13.5298 17.9097C13.8616 17.0696 14.2049 16.2006 15 16.2006C15.7951 16.2006 16.1387 17.0698 16.4707 17.9099C16.6678 18.4084 16.8608 18.8966 17.1417 19.187C17.4613 19.5177 18.0675 19.5478 18.6844 19.5783C19.5217 19.6198 20.3788 19.6622 20.566 20.4591C20.75 21.2425 20.1547 21.7331 19.5559 22.2266C19.0964 22.6052 18.6348 22.9856 18.5215 23.5014C18.4183 23.9718 18.5579 24.5176 18.6958 25.0569C18.9063 25.8796 19.1128 26.6872 18.4476 27.1889C17.8006 27.6765 17.1244 27.2292 16.4413 26.7772C15.9618 26.46 15.4788 26.1404 15 26.1404C14.5212 26.1404 14.0382 26.46 13.5587 26.7772C12.8756 27.2292 12.1994 27.6765 11.5524 27.1889C10.8873 26.6874 11.0939 25.88 11.3043 25.0576C11.4423 24.518 11.582 23.972 11.4784 23.5014C11.3655 22.9855 10.9038 22.6051 10.4442 22.2264C9.84535 21.733 9.25003 21.2424 9.43396 20.4591C9.62156 19.6622 10.4786 19.6198 11.316 19.5783C11.9329 19.5478 12.539 19.5177 12.859 19.187C13.1399 18.8966 13.3329 18.4082 13.5298 17.9097Z" fill="#44AEC5"/>
<path opacity="0.4" d="M0.00559998 12.4286C0.027005 11.4502 0.109332 9.50856 0.264107 8.88356C1.05445 5.36856 3.73831 3.13523 7.57476 2.81689H22.4266C26.2301 3.15189 28.9469 5.40023 29.7372 8.88356C29.8903 9.49189 29.9727 11.4486 29.9941 12.4286H0.00559998Z" fill="#44AEC5"/>
<path d="M8.84144 7.9835C9.56592 7.9835 10.1093 7.43516 10.1093 6.70016V1.6185C10.1093 0.883496 9.56592 0.333496 8.84144 0.333496C8.11696 0.333496 7.5736 0.883496 7.5736 1.6185V6.70016C7.5736 7.43516 8.11696 7.9835 8.84144 7.9835Z" fill="#44AEC5"/>
<path d="M21.1582 7.9835C21.8662 7.9835 22.4261 7.43516 22.4261 6.70016V1.6185C22.4261 0.883496 21.8662 0.333496 21.1582 0.333496C20.4338 0.333496 19.8904 0.883496 19.8904 1.6185V6.70016C19.8904 7.43516 20.4338 7.9835 21.1582 7.9835Z" fill="#44AEC5"/>
</svg>
