<svg width="38" height="42" viewBox="0 0 38 42" fill="none" xmlns="http://www.w3.org/2000/svg">
<path d="M12.3722 32.4994C9.36614 30.8512 6.36006 30.9896 3.56327 32.9735C0.802939 34.9288 -0.213356 37.7272 0.0403217 41.0857H16.6039C16.921 37.3374 15.3799 34.1492 12.3722 32.4994Z" fill="#4E70F2"/>
<path d="M8.29751 29.0216C11.5747 29.0343 14.2621 26.3679 14.2748 23.089C14.2875 19.8006 11.6302 17.104 8.36251 17.0912C5.08532 17.0785 2.39792 19.7449 2.38524 23.0238C2.37255 26.3122 5.02982 29.0089 8.29751 29.0216Z" fill="#4E70F2"/>
<path opacity="0.4" d="M34.9892 0.423096H19.0218V9.95593H9.55325V14.7939C13.1507 15.5767 15.613 17.6306 16.4247 21.2515C17.2428 24.8995 15.8445 27.8157 12.8907 30.0732C15.2927 31.3078 17.0573 33.0737 18.0784 35.5158C18.302 36.0519 18.5794 36.1967 19.128 36.1951C24.8817 36.1776 29.6984 36.1824 35.3602 36.184C36.7443 36.184 37.9287 35.1133 37.9952 33.726C37.9984 33.6703 38 33.6146 38 33.5573V3.44268C38 1.77538 36.6523 0.423096 34.9907 0.423096H34.9892ZM28.1193 25.6393H20.2394C19.61 25.6393 19.0994 25.127 19.0994 24.4954C19.0994 23.8638 19.61 23.3515 20.2394 23.3515H28.1193C28.7487 23.3515 29.2592 23.8638 29.2592 24.4954C29.2592 25.127 28.7487 25.6393 28.1193 25.6393ZM33.2626 19.0863C33.2626 19.7195 32.752 20.2317 32.121 20.2317H20.2378C19.6068 20.2317 19.0963 19.7195 19.0963 19.0863C19.0963 18.4531 19.6068 17.9408 20.2378 17.9408H32.1194C32.7505 17.9408 33.261 18.4531 33.261 19.0863H33.2626ZM32.121 14.8226H20.2378C19.6068 14.8226 19.0963 14.3103 19.0963 13.6771C19.0963 13.0439 19.6068 12.5316 20.2378 12.5316H32.1194C32.7505 12.5316 33.261 13.0439 33.261 13.6771C33.261 14.3103 32.7505 14.8226 32.1194 14.8226H32.121Z" fill="#4E70F2"/>
</svg>
