<svg width="23" height="23" viewBox="0 0 23 23" fill="none" xmlns="http://www.w3.org/2000/svg">
<path d="M18.2034 20.6256H4.95718C4.31508 20.6256 3.69928 20.3706 3.24524 19.9165C2.79121 19.4625 2.53613 18.8467 2.53613 18.2046V4.9584C2.53613 4.3163 2.79121 3.7005 3.24524 3.24646C3.69928 2.79243 4.31508 2.53735 4.95718 2.53735H18.2034C18.8455 2.53735 19.4613 2.79243 19.9153 3.24646C20.3693 3.7005 20.6244 4.3163 20.6244 4.9584V18.2046C20.6244 18.8467 20.3693 19.4625 19.9153 19.9165C19.4613 20.3706 18.8455 20.6256 18.2034 20.6256ZM4.95718 3.92876C4.6841 3.92876 4.42221 4.03724 4.22911 4.23033C4.03602 4.42343 3.92754 4.68532 3.92754 4.9584V18.2046C3.92754 18.4777 4.03602 18.7396 4.22911 18.9327C4.42221 19.1257 4.6841 19.2342 4.95718 19.2342H18.2034C18.4764 19.2342 18.7383 19.1257 18.9314 18.9327C19.1245 18.7396 19.233 18.4777 19.233 18.2046V4.9584C19.233 4.68532 19.1245 4.42343 18.9314 4.23033C18.7383 4.03724 18.4764 3.92876 18.2034 3.92876H4.95718Z" fill="#8E8E8E"/>
<path d="M3.23402 17.8984C3.13381 17.8981 3.03482 17.8764 2.94365 17.8348C2.85248 17.7932 2.77122 17.7327 2.70529 17.6572C2.64595 17.5873 2.60102 17.5063 2.57309 17.419C2.54516 17.3316 2.53477 17.2396 2.54253 17.1482C2.55029 17.0569 2.57604 16.9679 2.6183 16.8865C2.66056 16.8051 2.7185 16.7329 2.78877 16.674L7.53811 12.6667C7.8927 12.3674 8.34658 12.2119 8.81021 12.2308C9.27384 12.2497 9.71356 12.4416 10.0426 12.7688L12.2967 15.0228C12.3807 15.0947 12.4876 15.1342 12.5982 15.1342C12.7087 15.1342 12.8156 15.0947 12.8997 15.0228L15.0888 13.4366C15.4132 13.1869 15.8111 13.0515 16.2205 13.0515C16.6299 13.0515 17.0278 13.1869 17.3522 13.4366L20.3669 15.8391C20.4387 15.8964 20.4986 15.9672 20.5431 16.0476C20.5876 16.128 20.6158 16.2164 20.6262 16.3077C20.6365 16.399 20.6288 16.4915 20.6034 16.5798C20.578 16.6681 20.5354 16.7505 20.4782 16.8224C20.4209 16.8943 20.3501 16.9541 20.2697 16.9986C20.1893 17.0431 20.1009 17.0713 20.0096 17.0817C19.9183 17.092 19.8259 17.0843 19.7375 17.0589C19.6492 17.0335 19.5668 16.991 19.4949 16.9337L16.4895 14.5219C16.4084 14.4595 16.3089 14.4256 16.2066 14.4256C16.1042 14.4256 16.0047 14.4595 15.9236 14.5219L13.7345 16.2194C13.3782 16.487 12.9374 16.6174 12.4929 16.5867C12.0483 16.5561 11.6297 16.3664 11.3135 16.0525L9.05938 13.752C8.97415 13.6751 8.86343 13.6325 8.74863 13.6325C8.63383 13.6325 8.52311 13.6751 8.43788 13.752L3.67927 17.7407C3.55502 17.8458 3.39669 17.9018 3.23402 17.8984Z" fill="#8E8E8E"/>
<path d="M14.3654 11.3494C13.8608 11.3494 13.3677 11.1998 12.9482 10.9195C12.5287 10.6392 12.2017 10.2408 12.0086 9.77466C11.8156 9.30854 11.765 8.79564 11.8635 8.30081C11.9619 7.80598 12.2048 7.35146 12.5616 6.9947C12.9184 6.63795 13.3729 6.395 13.8677 6.29657C14.3625 6.19815 14.8754 6.24866 15.3416 6.44174C15.8077 6.63481 16.2061 6.96177 16.4864 7.38126C16.7667 7.80076 16.9163 8.29395 16.9163 8.79847C16.9163 9.47501 16.6475 10.1238 16.1691 10.6022C15.6907 11.0806 15.0419 11.3494 14.3654 11.3494ZM14.3654 7.63897C14.136 7.63897 13.9119 7.70697 13.7212 7.83438C13.5305 7.96179 13.3819 8.14288 13.2941 8.35475C13.2064 8.56662 13.1834 8.79976 13.2281 9.02468C13.2729 9.2496 13.3833 9.45621 13.5455 9.61836C13.7076 9.78052 13.9142 9.89096 14.1392 9.9357C14.3641 9.98044 14.5972 9.95747 14.8091 9.86971C15.021 9.78195 15.2021 9.63334 15.3295 9.44266C15.4569 9.25198 15.5249 9.0278 15.5249 8.79847C15.5249 8.49095 15.4027 8.19603 15.1853 7.97858C14.9678 7.76113 14.6729 7.63897 14.3654 7.63897Z" fill="#8E8E8E"/>
</svg>
