<svg width="24" height="24" viewBox="0 0 24 24" fill="none" xmlns="http://www.w3.org/2000/svg">
<g clip-path="url(#clip0_755_1321)">
<path fill-rule="evenodd" clip-rule="evenodd" d="M22.6891 6.33252C22.6228 6.64909 22.8095 6.98842 22.9906 7.31636H22.9896C23.0768 7.47276 23.1659 7.63578 23.2228 7.78744C24.4986 11.2025 24.1668 14.9597 22.3129 18.0951C20.4551 21.2362 17.3149 23.3423 13.6971 23.8712C10.464 24.3451 7.25563 23.4977 4.66142 21.4874C2.05299 19.4656 0.421779 16.5463 0.0701338 13.2668C-0.272033 10.0745 0.645466 6.94671 2.65487 4.4596C4.66426 1.97345 7.53145 0.415215 10.7304 0.0730485C11.1673 0.0266048 11.6014 0.00290907 12.0327 0.00290907C13.8156 0.00290907 15.5444 0.401945 17.1851 1.19623C17.5168 1.35736 17.7964 1.39243 18.0808 1.04268C18.2184 0.873904 18.3755 0.72377 18.541 0.565648L18.5576 0.549807C18.641 0.471137 18.7234 0.392467 18.804 0.310954C19.1007 0.0114395 19.3926 -0.0681782 19.7234 0.0597789C20.0817 0.19911 20.258 0.471137 20.2608 0.891973C20.2655 1.49404 20.2646 2.09425 20.2637 2.72856L20.2636 2.74593V3.57907V3.72125H20.4058C20.6674 3.72125 20.9243 3.7184 21.1774 3.71556C21.8077 3.70798 22.4029 3.70134 23 3.73831C23.2815 3.75631 23.618 3.89944 23.818 4.08711C24.1346 4.38473 23.9953 4.8321 23.7308 5.12119C23.6247 5.23682 23.492 5.35341 23.3631 5.46525C23.0664 5.72401 22.7602 5.9913 22.6891 6.33252ZM16.6979 4.70035C16.6154 4.78566 16.5377 4.88044 16.5368 4.99228L16.5377 4.99513C16.5318 5.53228 16.5319 6.06195 16.532 6.61536C16.532 6.68497 16.532 6.75496 16.532 6.82539V7.46707H16.6742C16.7586 7.46707 16.8344 7.46423 16.9055 7.46138L16.9071 7.46132C17.0371 7.45661 17.139 7.45292 17.2344 7.46897C17.4666 7.50877 17.6893 7.52868 17.9054 7.52868C18.9414 7.52868 19.7869 7.06803 20.4257 6.15527C20.5039 6.04349 20.6021 5.94391 20.7245 5.81978L20.7404 5.80363L20.7438 5.80014C20.8111 5.73192 20.8839 5.65813 20.9622 5.57425L21.1849 5.3354H20.8579C20.7667 5.3354 20.6794 5.33591 20.595 5.3364C20.5162 5.33685 20.4401 5.3373 20.366 5.3373C20.0513 5.33919 19.7803 5.34014 19.5082 5.3335C18.9386 5.31834 18.6666 5.04157 18.6523 4.4634C18.6448 4.18568 18.6467 3.90133 18.6485 3.62646C18.6504 3.5004 18.6504 3.37434 18.6504 3.24828V3.16392L18.3557 3.00279L17.9396 3.42742C17.87 3.49854 17.8005 3.56966 17.7309 3.6408C17.3861 3.9934 17.041 4.34622 16.6979 4.70035ZM19.1168 19.5434C21.3366 17.4439 22.0607 14.9947 22.2778 13.3104L22.2787 13.3095C22.5403 11.2821 22.1972 9.19022 21.3622 7.7154L21.2683 7.54953L21.1357 7.68697C21.0418 7.78364 20.948 7.87937 20.8551 7.97321C20.6485 8.18173 20.4352 8.39879 20.239 8.62342C19.9499 8.95516 19.6106 9.09734 19.1357 9.08501C18.7237 9.07337 18.3049 9.07527 17.8985 9.07711L17.8277 9.07743C17.4173 9.08028 16.9917 9.08217 16.5756 9.07174C16.2069 9.06132 15.9415 9.17127 15.6828 9.43571C14.7852 10.3532 13.8175 11.3228 12.6365 12.4868C12.4099 12.7095 12.1474 12.8204 11.8953 12.7977C11.6744 12.7778 11.4811 12.6602 11.337 12.4564C11.0138 11.9986 11.2583 11.5873 11.5209 11.3228C11.8687 10.9712 12.2185 10.6224 12.5682 10.2736C13.2251 9.61864 13.9047 8.94 14.5606 8.2604C14.7473 8.06705 14.88 7.75237 14.8904 7.47749C14.9255 6.55336 14.9141 5.61406 14.8989 4.81599C14.8904 4.36956 15.0203 4.05393 15.3188 3.78949C15.5558 3.58002 15.7776 3.36297 16.0126 3.13264L16.0145 3.13078C16.1163 3.03092 16.219 2.93013 16.3245 2.82934L16.4685 2.69095L16.2903 2.59996C14.4478 1.66445 12.1218 1.3839 9.90955 1.82938C8.15512 2.18292 5.64906 3.15539 3.67757 5.77804C2.10797 7.86516 1.39236 10.4461 1.66059 13.045C1.92883 15.6421 3.15627 18.0306 5.11733 19.7718C7.06133 21.4987 9.4091 22.3575 11.9853 22.3575C14.5615 22.3575 17.1368 21.4163 19.1168 19.5434ZM17.7167 12.0503C17.747 11.5129 18.0712 11.1726 18.5423 11.1878V11.1869C19.0143 11.2001 19.3375 11.5717 19.3271 12.0911C19.2968 13.6209 18.8522 14.9962 18.0039 16.18C16.5841 18.1619 14.6078 19.2519 12.2942 19.3316C8.15501 19.3287 4.87173 16.3317 4.65847 12.3612C4.45279 8.53198 7.2868 5.17572 11.1141 4.71981C11.3558 4.69138 11.607 4.66199 11.8497 4.6582H11.8686C12.4146 4.6582 12.7861 4.97383 12.7956 5.44775C12.806 5.92829 12.4629 6.23634 11.879 6.26951C9.41278 6.41074 7.68868 7.57847 6.75317 9.73857C5.80724 11.9243 6.15035 14.019 7.7465 15.7962C9.33316 17.5629 11.3634 18.1382 13.6155 17.4567C15.8893 16.7696 17.2466 15.1933 17.6494 12.7716C17.6892 12.5309 17.7034 12.2863 17.7167 12.0503Z" fill="#5679FF"/>
</g>
<defs>
<clipPath id="clip0_755_1321">
<rect width="24" height="24" fill="white"/>
</clipPath>
</defs>
</svg>
